<?xml version="1.0" encoding="utf-8"?>
<!-- Generator: Adobe Illustrator 24.3.0, SVG Export Plug-In . SVG Version: 6.00 Build 0)  -->
<svg version="1.1" id="Calque_1" xmlns="http://www.w3.org/2000/svg" xmlns:xlink="http://www.w3.org/1999/xlink" x="0px" y="0px"
	 viewBox="0 0 595.28 841.89" style="enable-background:new 0 0 595.28 841.89;" xml:space="preserve">
<style type="text/css">
	.st0{fill:#93BCBC;}
	.st1{fill:none;stroke:#FFFFFF;stroke-width:4;stroke-miterlimit:10;}
	.st2{stroke:#020203;stroke-width:0.25;stroke-miterlimit:10;}
	.st3{fill:#CF581B;stroke:#020203;stroke-width:0.25;stroke-miterlimit:10;}
	.st4{fill:#DDDDD3;}
	.st5{fill:#A04611;stroke:#020203;stroke-width:0.25;stroke-miterlimit:10;}
	.st6{fill:#FFFFFF;stroke:#020203;stroke-width:0.25;stroke-miterlimit:10;}
	.st7{stroke:#000000;stroke-width:0.3;stroke-miterlimit:10;}
	.st8{stroke:#020203;stroke-width:0.2;stroke-miterlimit:10;}
	.st9{fill:none;}
	.st10{fill:#FFFFFF;}
</style>
<g>
	<polygon class="st0" points="360.76,455.05 360.76,375.26 294.22,335.36 227.69,375.26 227.69,455.05 294.22,494.95 	"/>
	<polygon class="st1" points="353.26,450.34 294.26,485.77 235.26,450.34 235.26,379.49 294.26,344.06 353.26,379.49 	"/>
	<g>
		<path class="st2" d="M317.21,401.64c0.94-0.93,1.5-2.25,2.99-2.06c0.27-0.38,0.5-0.68,0.71-1c0.12-0.18,0.27-0.37,0.29-0.57
			c0.1-0.93,0.19-1.86,0.23-2.8c0.03-0.77-0.62-1.21-1.38-0.97c-0.43,0.14-0.86,0.29-1.3,0.43c-0.17,0.05-0.34,0.09-0.51,0.11
			c-0.96,0.08-1.41-0.37-1.33-1.34c-0.1,0-0.2-0.03-0.3-0.01c-0.81,0.13-1.33-0.41-1.03-1.16c0.25-0.63,0.6-1.17,1.4-1.45
			c1.96-0.68,3.96-0.77,5.99-0.72c0.42,0.01,0.89,0.16,1.23,0.38c1.31,0.86,2.58,1.77,3.86,2.67c0.5,0.35,0.98,0.71,1.49,1.06
			c0.78,0.53,1.16,1.31,1.4,2.15c0.09,0.32,0.18,0.46,0.57,0.37c0.23-0.05,0.54,0.03,0.74,0.15c1,0.63,1.99,1.28,2.96,1.96
			c0.51,0.36,0.83,1.78,0.42,2.25c-0.67,0.75-1.43,1.44-2.21,2.09c-0.37,0.31-0.86,0.26-1.29,0c-0.54-0.32-1.08-0.64-1.62-0.96
			c-0.91-0.53-1.38-1.38-1.8-2.26c-0.35-0.72-0.7-0.75-1.44-0.45c-1.05,0.43-2.13,0.8-3.17,1.24c-0.41,0.17-0.76,0.47-1.13,0.72
			c-0.04,0.03-0.04,0.12-0.05,0.19c-0.07,1.09-0.07,1.09-0.7,2.05c0.73,0.43,0.64,1.15,0.64,1.84c0.01,1.19,0.07,2.38,0.06,3.57
			c-0.01,2.43-0.08,4.87-0.08,7.3c0,3.39,0.02,6.77,0.08,10.16c0.01,0.9-0.44,1.4-1.23,1.69c-1.15,0.42-2.32,0.8-3.48,1.19
			c-6.27,2.13-12.55,4.26-18.81,6.42c-1.33,0.46-2.54,0.18-3.77-0.29c-1.6-0.6-3.21-1.16-4.8-1.76c-3.03-1.13-6.05-2.29-9.08-3.41
			c-5.57-2.07-11.14-4.13-16.71-6.18c-0.53-0.19-0.89-0.5-0.98-1.03c-0.19-1.14-0.42-2.28-0.48-3.43c-0.27-4.87-0.48-9.75-0.7-14.63
			c-0.02-0.52,0.06-1.05,0.12-1.58c0.05-0.41,0.23-0.68,0.75-0.67c0.43,0,0.87-0.11,1.41-0.18c-0.17-0.19-0.28-0.31-0.39-0.42
			c-0.73-0.78-1.45-1.58-2.2-2.34c-0.22-0.22-0.56-0.33-0.82-0.52c-0.51-0.36-1.01-0.74-1.51-1.11c-0.61-0.45-0.94-1.01-1.17-1.74
			c-0.24-0.75-0.77-1.45-1.3-2.07c-0.68-0.8-1.46-1.52-2.23-2.25c-0.78-0.74-1.11-1.55-0.58-2.56c0.3-0.57,0.58-1.16,0.87-1.74
			c0.19-0.38,0.56-0.42,0.91-0.34c0.76,0.18,1.46,0.01,2.17-0.2c0.35-0.1,0.71-0.17,1.08-0.22c0.71-0.1,1.28,0.18,1.81,0.64
			c2.91,2.51,5.65,5.18,8.24,8c0.21,0.23,0.43,0.44,0.68,0.7c0.43-0.73,0.7-1.41,0.59-2.22c-0.27-2.04-0.13-4.08,0.23-6.09
			c0.13-0.73,0.52-1.44,0.9-2.1c0.82-1.41,2.15-1.63,3.7-1.32c1.16,0.23,1.9,0.91,2.32,1.94c0.22,0.54,0.57,0.72,1.17,0.68
			c0.86-0.05,1.72-0.01,2.6-0.01c-0.97-0.77-1.71-1.82-2.93-2.37c-0.54-0.24-1.03-0.62-1.52-0.97c-0.37-0.27-0.16-0.58,0.03-0.86
			c0.84-1.19,1.69-2.38,2.54-3.57c0.14-0.19,0.28-0.39,0.21-0.43c-0.25-0.35-0.52-0.69-0.75-1.04c-0.23-0.34-0.48-0.68-0.62-1.05
			c-0.35-0.94-0.63-1.91-0.94-2.86c-0.24-0.72,0.05-1.09,0.79-0.83c0.88,0.31,1.69,0.8,2.53,1.22c0.21,0.11,0.38,0.27,0.57,0.4
			c0.04-0.05,0.07-0.09,0.11-0.14c-1.11-0.8-2.22-1.62-3.35-2.4c-0.26-0.18-0.31-0.5,0.02-0.71c0.21-0.13,0.49-0.17,0.74-0.26
			c1.66-0.58,3.31-0.31,4.93,0.16c0.87,0.25,1.53,0.79,1.98,1.59c0.25,0.45,0.68,0.82,0.93,1.27c0.33,0.59,0.7,1.21,0.83,1.85
			c0.24,1.21,0.44,2.45,0.46,3.69c0.04,2.65,0.86,5.07,1.97,7.44c0.06,0.12,0.24,0.27,0.37,0.28c1.11,0.02,2.21,0.01,3.38,0.01
			c0.24-1.79,0.52-3.5,0.7-5.22c0.31-2.96,0.66-5.91,1.38-8.81c0.21-0.86,0.33-0.94,1.24-0.86c2.03,0.18,4.07,0.38,6.1,0.6
			c0.79,0.08,1.31,0.75,1.23,1.49c-0.38,3.33-0.75,6.66-1.14,9.99c-0.08,0.67-0.25,1.34-0.36,2.01c-0.05,0.26-0.06,0.53-0.1,0.89
			c0.58,0,1.11,0.04,1.62-0.02c0.21-0.02,0.43-0.22,0.58-0.39c0.36-0.4,0.7-0.81,1.01-1.25c0.93-1.32,3.57-1.36,4.8-0.44
			c1.74,1.29,2.49,3.04,2.71,5.05c0.16,1.45,0.29,2.91,0.36,4.37c0.04,0.95-0.03,1.9-0.1,2.85c-0.05,0.68,0.02,0.93,0.63,1.26
			C316.09,399.87,316.75,400.62,317.21,401.64z M312.04,388.52c0.02-0.6-0.79-1.67-1.54-1.93c-1.09-0.38-1.96,0.07-2.74,0.73
			c-1.05,0.88-1.25,2.13-1.3,3.33c-0.12,2.92-0.11,5.84-0.13,8.76c-0.01,0.93-0.33,1.6-1.29,1.96c-1.28,0.48-2.15,1.39-2.75,2.56
			c-0.39,0.76-0.77,1.53-1.15,2.29c-0.32,0.64-0.63,1.35-1.37,1.58c-0.88,0.27-1.81,0.43-2.73,0.52c-0.52,0.05-0.7,0.16-0.7,0.67
			c0.03,1.99-0.05,3.98,0.05,5.97c0.2,3.95,0.45,7.9,0.76,11.85c0.19,2.45,0.53,4.89,0.8,7.34c0.08,0.73,0.07,0.74,0.81,0.48
			c3.56-1.2,7.12-2.41,10.68-3.61c3.77-1.28,7.54-2.57,11.32-3.84c0.54-0.18,0.89-0.46,0.9-1.04c0.02-1.39,0.07-2.79,0.05-4.18
			c-0.02-1.87-0.13-3.74-0.14-5.61c-0.02-2.45,0.02-4.9,0.05-7.34c0.02-1.13,0.07-2.27,0.12-3.4c0.02-0.37-0.14-0.51-0.51-0.41
			c-0.18,0.05-0.36,0.13-0.54,0.19c-1.41,0.43-2.82,0.19-3.58-1.33c-0.48-0.95-1.06-1.85-1.64-2.75c-0.27-0.43-0.54-0.88-1.13-1.04
			c-0.8-0.22-1.07-0.76-1.04-1.57c0.05-2.01,0.03-4.02,0-6.02c0-0.29-0.19-0.57-0.29-0.86c-0.2,0.19-0.43,0.35-0.59,0.57
			c-0.78,1.11-2.67,1.05-3.33-0.12c-0.41-0.73-0.52-1.52-0.4-2.32c0.15-1.05,0.81-1.7,1.81-1.74
			C311.02,388.17,311.54,388.4,312.04,388.52z M296.83,434.33c0.01-0.25,0.04-0.4,0.03-0.55c-0.15-1.35-0.34-2.7-0.47-4.05
			c-0.36-3.61-0.74-7.23-1.02-10.85c-0.14-1.86-0.1-3.74-0.12-5.61c-0.02-1.56-0.01-3.13-0.02-4.69c0-0.29,0-0.58-0.43-0.63
			c-1.99-0.23-3.98-0.5-5.97-0.72c-2.95-0.31-5.91-0.58-8.87-0.88c-1.96-0.2-3.91-0.44-5.87-0.65c-2.48-0.27-4.96-0.54-7.45-0.8
			c-0.75-0.08-1.49-0.11-2.29-0.17c-0.04,0.56-0.13,1.03-0.11,1.5c0.04,1.09,0.15,2.17,0.19,3.26c0.12,2.92,0.21,5.84,0.34,8.77
			c0.06,1.27,0.21,2.54,0.32,3.81c0.04,0.54,0.27,0.94,0.82,1.13c0.53,0.18,1.05,0.37,1.58,0.56c7.99,2.93,15.98,5.86,23.97,8.78
			C293.21,433.16,294.98,433.71,296.83,434.33z M302.63,392.41c0,0.02,0,0.03,0,0.05c0.58,0,1.16-0.01,1.74,0
			c0.29,0.01,0.46-0.05,0.5-0.37c0.08-0.71,0.19-1.41,0.31-2.11c0.08-0.47-0.12-0.62-0.6-0.64c-1.85-0.04-3.69-0.14-5.54-0.18
			c-4.38-0.09-8.77-0.15-13.15-0.22c-0.84-0.01-1.68-0.06-2.52-0.09c-2.32-0.1-4.64-0.23-6.96-0.31c-1.29-0.04-1.63,0.28-1.79,1.53
			c-0.03,0.2-0.03,0.41-0.01,0.61c0.07,0.73,0.43,1.02,1.19,1.04c5.79,0.13,11.59,0.25,17.38,0.39
			C296.33,392.19,299.48,392.31,302.63,392.41z M302.5,380.78c-0.04,0.11-0.08,0.21-0.11,0.3c-0.61,1.54-1.02,1.8-2.71,1.74
			c-0.21-0.01-0.42-0.03-0.63-0.06c-0.56-0.08-0.97-0.38-1.21-0.88c-0.86-1.82,0.54-3.98,2.6-4.07c0.88-0.04,1.46,0.34,1.81,1.05
			c0.21,0.42,0.32,0.89,0.52,1.46c0.21-0.17,0.53-0.28,0.57-0.46c0.12-0.56,0.15-1.15,0.18-1.72c0.01-0.13-0.07-0.3-0.16-0.4
			c-0.45-0.47-0.39-0.4,0.1-0.79c0.26-0.21,0.29-0.7,0.35-1.08c0.01-0.08-0.31-0.27-0.49-0.3c-0.68-0.11-1.36-0.17-2.04-0.27
			c-0.99-0.14-1.98-0.29-2.98-0.44c-0.38-0.06-0.65,0.01-0.73,0.44c-0.08,0.5-0.25,0.99-0.31,1.5c-0.29,2.21-0.54,4.42-0.83,6.63
			c-0.19,1.45-0.41,2.89-0.63,4.39c1.91,0,3.81,0.01,5.71-0.01c0.36-0.01,0.7-0.18,0.78-0.62c0.09-0.5,0.25-0.99,0.31-1.5
			c0.02-0.19-0.1-0.45-0.25-0.58c-0.41-0.36-0.4-0.51,0.1-0.76c0.17-0.09,0.38-0.27,0.41-0.43c0.14-0.8,0.2-1.62,0.33-2.43
			C303.24,381.02,303.05,380.8,302.5,380.78z M277.56,387.32c-0.21-1.12-1.29-1.7-2.41-1.52c-1.12,0.18-1.6,0.99-2,1.77
			c-0.5,0.98-0.7,2.08-0.68,3.21c0.03,1.65,0.04,3.3-0.01,4.95c-0.02,0.49-0.2,1.01-0.42,1.46c-0.19,0.39-0.13,0.64,0.15,0.92
			c2,2.03,4.02,4.05,5.98,6.12c0.49,0.51,1.01,0.47,1.74,0.44c-0.26-0.19-0.42-0.32-0.58-0.43c-0.69-0.5-1.38-1-2.08-1.48
			c-0.64-0.44-1.07-1-1.11-1.76c-0.06-1.02-0.14-2.04-0.11-3.05c0.02-0.53,0.23-1.06,0.43-1.56c0.09-0.25,0.33-0.48,0.67-0.25
			c0.83,0.55,1.67,1.08,2.14,1.99c0.08,0.16,0.24,0.29,0.37,0.43c0.2,0.2,0.42,0.2,0.65,0.02c0.48-0.38,0.47-0.62,0.15-1.4
			c-0.24-0.59-0.65-1.11-0.89-1.7c-0.23-0.56-0.64-1.06-0.4-1.8c0.16-0.49-0.11-0.86-0.74-0.82c-0.91,0.06-1.83,0.05-2.74,0.1
			c-0.58,0.03-1.08-0.08-1.45-0.55c-1.11-1.39-1.23-3.24,0.17-4.56c0.3-0.28,0.79-0.44,1.21-0.49
			C276.21,387.26,276.87,387.32,277.56,387.32z M276.38,404.27c-0.18-0.19-0.26-0.29-0.36-0.39c-1-1-2.04-1.98-3.01-3.01
			c-3.94-4.15-7.82-8.35-12.02-12.27c-0.36-0.34-0.7-0.44-1.18-0.32c-0.71,0.17-1.45,0.47-2.15,0.42c-0.96-0.08-1.36,0.34-1.61,1.09
			c-0.01,0.03-0.03,0.06-0.05,0.09c-0.36,0.81-0.3,1.02,0.32,1.68c1.12,1.19,2.22,2.41,3.33,3.61c0.09,0.09,0.21,0.18,0.33,0.2
			c1.39,0.27,2.69,1.54,2.98,2.88c0.07,0.33,0.22,0.69,0.45,0.93c1.16,1.19,2.42,2.29,3.51,3.53c0.7,0.8,1.55,0.77,2.55,0.85
			c-0.14-0.16-0.22-0.25-0.3-0.33c-3.09-3.31-6.18-6.61-9.26-9.93c-0.43-0.47-0.86-0.95-1.2-1.48c-0.37-0.59-0.09-0.98,0.63-1.05
			c0.4-0.04,0.81-0.09,1.17-0.24c0.47-0.2,0.85-0.13,1.21,0.17c0.48,0.4,0.98,0.79,1.41,1.23c1.64,1.66,3.26,3.34,4.88,5.03
			c2.05,2.13,4.12,4.24,6.09,6.45C274.75,404.12,275.43,404.26,276.38,404.27z M293.78,406.27c-0.23-0.95-0.42-1.77-0.63-2.59
			c-0.08-0.31-0.14-0.64-0.29-0.91c-0.36-0.63-0.32-1.19,0.16-1.55c0.57-0.42,1.4-0.34,1.84,0.21c0.39,0.48,0.74,1,1.09,1.5
			c0.83,1.19,1.64,2.39,2.47,3.61c0.43-0.14,0.69-0.32,0.44-0.84c-0.25-0.52-0.36-1.1-0.6-1.63c-1.21-2.68-2.44-5.34-3.67-8.01
			c-0.11-0.24-0.3-0.45-0.51-0.76c-0.63,0.4-1.27,0.73-1.81,1.17c-1.02,0.83-1.98,1.73-2.99,2.57c-0.28,0.24-0.31,0.43-0.16,0.74
			c0.41,0.83,0.83,1.65,1.14,2.52c0.15,0.4,0.1,0.88,0.08,1.33c-0.03,0.51-0.17,1.01-0.17,1.51c0,0.34,0.08,0.77,0.54,0.83
			C291.71,406.1,292.7,406.17,293.78,406.27z M301.46,393.5c-2.18,0-4.3,0-6.42,0c-0.21,0.51-0.17,0.92,0.12,1.35
			c0.4,0.6,0.79,1.21,1.1,1.85c0.97,2.02,1.9,4.05,2.86,6.07c0.07,0.15,0.31,0.31,0.48,0.31c0.13,0,0.34-0.23,0.37-0.38
			c0.11-0.69,0.19-1.38,0.23-2.08c0.01-0.14-0.15-0.29-0.26-0.43c-0.11-0.15-0.25-0.28-0.37-0.42c0.18-0.14,0.35-0.37,0.54-0.39
			c0.34-0.04,0.45-0.2,0.5-0.47c0.14-0.91,0.29-1.81,0.41-2.72c0.02-0.14-0.09-0.35-0.21-0.44c-0.45-0.32-0.44-0.49,0.06-0.8
			c0.16-0.1,0.33-0.26,0.39-0.42C301.36,394.22,301.39,393.88,301.46,393.5z M277.21,398.19c-0.05,0.04-0.1,0.07-0.15,0.11
			c-0.01,0.05-0.04,0.1-0.04,0.15c0,0.24,0.03,0.48,0.01,0.71c-0.17,1.59,0.47,2.72,1.9,3.55c0.9,0.52,1.84,1.08,2.39,2.04
			c0.03,0.06,0.14,0.11,0.22,0.12c0.67,0.08,1.35,0.15,2.04,0.22c0.02-0.09,0.03-0.14,0.03-0.19c-0.01-0.12-0.03-0.24-0.06-0.35
			c-0.38-1.78-0.52-3.54-0.07-5.34c0.13-0.52,0.09-1.14-0.09-1.64c-0.38-1.04-1.15-1.85-2.07-2.51c-0.23-0.16-0.53-0.23-0.8-0.35
			c-0.03,0.05-0.07,0.09-0.1,0.14c0.05,0.16,0.09,0.32,0.16,0.47c0.3,0.61,0.59,1.22,0.91,1.82c0.33,0.61,0.27,1.2-0.2,1.68
			c-0.47,0.48-0.99,0.93-1.54,1.31c-0.65,0.45-1.05,0.32-1.44-0.35c-0.15-0.27-0.25-0.57-0.43-0.82
			C277.68,398.69,277.43,398.45,277.21,398.19z M288.99,402.25c-0.09-0.23-0.15-0.38-0.22-0.53c-0.57-1.37-1.15-2.73-2.04-3.95
			c-0.27-0.37-0.3-0.76,0.16-0.99c0.41-0.21,0.37-0.45,0.19-0.78c-0.5-0.92-0.98-1.84-1.49-2.75c-0.06-0.11-0.22-0.24-0.34-0.24
			c-1.48-0.04-2.96-0.06-4.43-0.07c-0.34,0-0.62,0.14-0.59,0.58c0.14,0.03,0.27,0.08,0.4,0.1c2.01,0.25,3.36,1.44,4.44,2.97
			c0.5,0.72,0.68,1.51,0.33,2.36c-0.16,0.39-0.27,0.81-0.39,1.21c-0.38,1.29,0.04,1.86,1.42,1.94
			C287.25,402.15,288.05,402.2,288.99,402.25z M280.46,372.29c1.05,0.8,1.99,1.51,2.92,2.23c0.43,0.33,0.48,0.64,0.07,0.84
			c-0.44,0.21-0.44,0.5-0.31,0.83c0.31,0.78,0.04,1.42-0.42,2.04c-0.21,0.28-0.39,0.57-0.6,0.84c-0.43,0.58-0.88,1.15-1.32,1.72
			c-0.51,0.66-1.02,1.33-1.53,1.99c-0.15,0.2-0.32,0.39-0.48,0.58c1.04,0.73,1.84,0.6,2.49-0.3c-0.04-0.28-0.18-0.57-0.08-0.71
			c0.48-0.73,0.69-1.64,1.48-2.19c0.44-0.31,0.87-0.66,1.2-1.07c0.75-0.92,1.45-1.89,2.13-2.86c0.18-0.25,0.33-0.61,0.29-0.89
			c-0.15-0.97-0.62-1.91-1.43-2.42C283.6,372.14,282.12,371.95,280.46,372.29z M301.29,402.56c0.06,0.02,0.11,0.03,0.17,0.05
			c0.72-1.09,1.73-1.81,2.94-2.31c0.48-0.2,0.78-0.6,0.77-1.13c-0.01-1.51-0.05-3.03-0.07-4.54c-0.01-0.56-0.31-0.86-0.85-0.93
			c-0.44-0.06-0.89-0.05-1.35-0.08C302.36,396.64,301.82,399.6,301.29,402.56z M321.16,391.07c0.15,0.22,0.18,0.29,0.22,0.33
			c1.43,1.37,1.95,2.93,1.19,4.81c-0.09,0.21-0.02,0.59,0.13,0.75c0.12,0.12,0.52,0.1,0.74,0.01c0.7-0.28,1.41-0.56,2.04-0.95
			c0.47-0.29,0.84-0.74,1.22-1.15c0.26-0.28,0.25-0.62,0.05-0.95c-0.86-1.39-2.15-2.26-3.73-2.73
			C322.48,391.04,321.87,391.11,321.16,391.07z M272.82,403.87c-0.14-0.16-0.21-0.25-0.29-0.33c-1.79-1.86-3.57-3.71-5.36-5.56
			c-1.96-2.02-3.94-4.03-5.9-6.06c-0.32-0.33-0.62-0.42-0.99-0.07c0.05,0.08,0.09,0.18,0.16,0.25c1.92,2.06,3.84,4.12,5.77,6.17
			c1.68,1.78,3.37,3.56,5.06,5.33c0.12,0.12,0.3,0.24,0.47,0.26C272.06,403.9,272.39,403.87,272.82,403.87z M284.94,383.68
			c0.42,1.3,0.82,2.53,1.23,3.77c0.03,0.09,0.16,0.2,0.25,0.21c0.65,0.05,1.29,0.1,1.88-0.29c0.25-0.17,0.36-0.33,0.27-0.63
			c-0.49-1.51-0.97-3.03-1.47-4.6c-0.29,0.12-0.5,0.2-0.7,0.29C286.81,383.51,286.34,383.64,284.94,383.68z M319.35,404.16
			c0.34-0.14,0.74-0.22,1-0.44c0.38-0.32,0.67-0.74,0.99-1.13c0.55-0.65,0.54-0.66,0.06-1.34c-0.52-0.74-1.47-0.82-2.11-0.16
			c-0.49,0.5-0.96,1.02-1.39,1.57c-0.1,0.13-0.11,0.44-0.02,0.57C318.22,403.71,318.59,404.19,319.35,404.16z M281.08,384.83
			c0.91,0.74,1.84,1.47,2.73,2.23c0.36,0.31,0.62,0.78,1.2,0.54c-0.22-0.72-0.54-1.43-0.65-2.17c-0.14-1.01-0.48-1.72-1.63-1.92
			c-0.33-0.05-0.52-0.05-0.72,0.21C281.73,384.08,281.42,384.42,281.08,384.83z M285.41,405.26c1.23,0.14,2.41,0.28,3.56,0.41
			c0.04-0.72,0.07-1.39,0.11-2.1c-1.37-0.1-2.7-0.2-4.13-0.31C285.12,403.99,285.27,404.62,285.41,405.26z M293.47,394.43
			c-0.24-0.43-0.65-0.41-1.12-0.17c-1.59,0.77-2.94,1.84-4.2,3.03c-0.1,0.1-0.13,0.36-0.07,0.51c0.07,0.21,0.25,0.39,0.37,0.55
			C290.13,397.03,291.78,395.74,293.47,394.43z M285.08,378.98c0.9,0.6,1.68,1.12,2.6,1.73c-0.17-1.48-0.33-2.84-0.5-4.21
			c-0.06,0-0.11,0.01-0.17,0.01C286.37,377.34,285.71,378.17,285.08,378.98z M300.07,381.94c0.77,0.04,1.11-0.14,1.34-0.76
			c0.06-0.17,0.07-0.36,0.1-0.55c0.1-0.47-0.12-0.66-0.59-0.66c-0.58,0-1.16-0.02-1.73,0c-0.13,0-0.31,0.13-0.37,0.25
			C298.38,381.18,298.88,381.87,300.07,381.94z M328.09,394.54c-0.57,0.79-1.08,1.48-1.52,2.1c0.69,0.41,1.44,0.85,2.24,1.33
			c0.58-0.29,0.65-0.34,0.39-1.03C328.88,396.13,328.47,395.35,328.09,394.54z M281.39,378.27c0.22-0.37,0.5-0.7,0.61-1.07
			c0.08-0.27,0.03-0.72-0.15-0.88c-0.6-0.53-1.3-0.97-2.07-1.52C280.15,376.11,280.17,377.39,281.39,378.27z M291.83,393.26
			c-0.44-0.03-0.94-0.05-1.44-0.08c-0.13,0.82-0.55,1.28-1.13,1.27c-0.18,0-0.44-0.05-0.52-0.17c-0.25-0.34-0.43-0.73-0.68-1.17
			c-0.26-0.01-0.65-0.03-1.16-0.06c0.5,0.89,0.94,1.67,1.4,2.49C289.52,394.76,290.68,394.01,291.83,393.26z M296.92,406.68
			c-0.99-1.44-1.88-2.75-2.78-4.07c0.17,0.87,0.39,1.73,0.61,2.58c0.09,0.33,0.17,0.66,0.31,0.97c0.06,0.15,0.22,0.33,0.36,0.35
			C295.87,406.6,296.33,406.62,296.92,406.68z M333.26,399.61c-0.68-0.46-1.34-0.89-2.05-1.37c-0.28,0.39-0.53,0.75-0.82,1.14
			c0.41,0.24,0.74,0.46,1.1,0.63C332.63,400.53,332.35,400.61,333.26,399.61z M311.42,390.87c0.02-0.01,0.04-0.01,0.06-0.02
			c-0.11-0.37-0.17-0.76-0.34-1.1c-0.08-0.17-0.39-0.35-0.56-0.33c-0.2,0.03-0.52,0.26-0.53,0.43c-0.05,0.49-0.01,0.99,0.07,1.48
			c0.05,0.31,0.19,0.67,0.62,0.64c0.43-0.04,0.58-0.39,0.66-0.75C311.42,391.11,311.42,390.99,311.42,390.87z M327.12,398.33
			c-0.03-0.08-0.05-0.17-0.08-0.25c-1.35-0.07-2.53,0.54-3.8,0.99c0.3,0.24,0.69,0.58,0.92,0.5
			C325.17,399.22,326.14,398.75,327.12,398.33z M319.09,391.93c0.68,0.49,0.24,0.94,0.02,1.47c0.86-0.29,1.6-0.69,2.46-0.05
			C321.23,392.37,320.38,391.88,319.09,391.93z M334.67,400.19c-1.21,0.41-1.84,1.22-1.49,1.89
			C334.19,401.53,334.88,400.68,334.67,400.19z M286.04,381.44c-0.2-1.13-0.97-1.5-1.92-0.95
			C284.76,380.81,285.36,381.1,286.04,381.44z M330.28,400.57c-0.04,0.05-0.07,0.11-0.11,0.16c0.55,0.38,1.09,0.76,1.64,1.14
			c0.06-0.04,0.12-0.08,0.18-0.11c-0.04-0.15-0.04-0.37-0.13-0.43C331.34,401.06,330.81,400.83,330.28,400.57z M322.88,400.22
			c-0.28-0.2-0.52-0.39-0.79-0.54c-0.11-0.06-0.27-0.02-0.4-0.03c0,0.17-0.07,0.37,0,0.49
			C322.02,400.62,322.28,400.64,322.88,400.22z M301.32,374.13c-0.01,0.07-0.02,0.14-0.03,0.21c0.57,0.07,1.14,0.14,1.71,0.22
			c0.01-0.06,0.02-0.11,0.03-0.17C302.46,374.31,301.89,374.22,301.32,374.13z"/>
		<path class="st3" d="M312.04,388.52c-0.5-0.11-1.02-0.34-1.53-0.33c-1,0.03-1.66,0.69-1.81,1.74c-0.12,0.8-0.01,1.6,0.4,2.32
			c0.67,1.18,2.55,1.23,3.33,0.12c0.15-0.22,0.39-0.38,0.59-0.57c0.1,0.29,0.29,0.57,0.29,0.86c0.03,2.01,0.05,4.02,0,6.02
			c-0.02,0.81,0.25,1.35,1.04,1.57c0.59,0.16,0.85,0.61,1.13,1.04c0.57,0.9,1.16,1.8,1.64,2.75c0.76,1.51,2.18,1.76,3.58,1.33
			c0.18-0.06,0.36-0.14,0.54-0.19c0.37-0.1,0.52,0.04,0.51,0.41c-0.05,1.13-0.1,2.27-0.12,3.4c-0.03,2.45-0.07,4.9-0.05,7.34
			c0.01,1.87,0.12,3.74,0.14,5.61c0.02,1.39-0.03,2.79-0.05,4.18c-0.01,0.58-0.37,0.86-0.9,1.04c-3.78,1.27-7.55,2.56-11.32,3.84
			c-3.56,1.21-7.12,2.41-10.68,3.61c-0.74,0.25-0.73,0.25-0.81-0.48c-0.27-2.45-0.61-4.89-0.8-7.34c-0.31-3.95-0.56-7.9-0.76-11.85
			c-0.1-1.98-0.02-3.98-0.05-5.97c-0.01-0.51,0.18-0.62,0.7-0.67c0.92-0.09,1.85-0.25,2.73-0.52c0.74-0.23,1.05-0.94,1.37-1.58
			c0.38-0.76,0.76-1.53,1.15-2.29c0.6-1.17,1.47-2.08,2.75-2.56c0.96-0.36,1.28-1.03,1.29-1.96c0.02-2.92,0.01-5.84,0.13-8.76
			c0.05-1.2,0.25-2.46,1.3-3.33c0.78-0.66,1.65-1.11,2.74-0.73C311.25,386.85,312.06,387.92,312.04,388.52z M300.98,430.86
			c-0.22-0.38-0.33-0.84-0.62-1.01c-0.4-0.23-0.84,0.03-1.16,0.37c-0.42,0.44-0.44,1.03-0.06,1.65c0.29,0.47,0.87,0.58,1.22,0.15
			C300.62,431.71,300.75,431.3,300.98,430.86z M297.56,412.15c-0.01,0.75,0.42,1.24,1.09,1.23c0.47-0.01,0.88-0.5,0.89-1.09
			c0.02-0.69-0.39-1.17-1.01-1.19C297.85,411.09,297.57,411.4,297.56,412.15z M297.95,421.64c-0.02,0.62,0.29,0.97,0.86,0.99
			c0.57,0.02,1.15-0.54,1.17-1.15c0.03-0.66-0.28-1.07-0.83-1.08C298.4,420.38,297.97,420.83,297.95,421.64z M319.74,425.72
			c0.58,0,1.04-0.51,1.05-1.18c0.01-0.56-0.45-0.99-1.04-0.98c-0.62,0.01-0.99,0.56-0.97,1.45
			C318.78,425.46,319.14,425.72,319.74,425.72z M319.78,417.56c0.01-0.64-0.4-0.98-1.22-1c-0.36-0.01-0.68,0.45-0.69,1
			c-0.01,0.63,0.4,1.11,0.96,1.13C319.35,418.72,319.77,418.22,319.78,417.56z M319.97,408.75c-0.16-0.26-0.27-0.59-0.51-0.75
			c-0.15-0.1-0.64-0.04-0.7,0.08c-0.23,0.43-0.4,0.91-0.48,1.4c-0.02,0.13,0.32,0.33,0.51,0.49c0.03,0.03,0.1,0.01,0.15,0.02
			C319.5,410,319.87,409.54,319.97,408.75z"/>
		<path class="st3" d="M296.83,434.33c-1.85-0.62-3.62-1.17-5.36-1.81c-8-2.91-15.98-5.85-23.97-8.78
			c-0.52-0.19-1.05-0.38-1.58-0.56c-0.55-0.19-0.78-0.59-0.82-1.13c-0.1-1.27-0.26-2.54-0.32-3.81c-0.14-2.92-0.22-5.84-0.34-8.77
			c-0.04-1.09-0.15-2.17-0.19-3.26c-0.02-0.47,0.06-0.94,0.11-1.5c0.79,0.06,1.54,0.09,2.29,0.17c2.48,0.26,4.97,0.53,7.45,0.8
			c1.96,0.21,3.91,0.45,5.87,0.65c2.96,0.3,5.91,0.57,8.87,0.88c1.99,0.21,3.98,0.48,5.97,0.72c0.43,0.05,0.43,0.34,0.43,0.63
			c0.01,1.56,0,3.13,0.02,4.69c0.02,1.87-0.02,3.75,0.12,5.61c0.28,3.62,0.66,7.23,1.02,10.85c0.13,1.35,0.32,2.7,0.47,4.05
			C296.87,433.93,296.84,434.08,296.83,434.33z"/>
		<path class="st3" d="M302.63,392.41c-3.15-0.1-6.3-0.22-9.45-0.3c-5.79-0.15-11.59-0.27-17.38-0.39
			c-0.76-0.02-1.12-0.31-1.19-1.04c-0.02-0.2-0.02-0.41,0.01-0.61c0.16-1.25,0.5-1.57,1.79-1.53c2.32,0.08,4.64,0.2,6.96,0.31
			c0.84,0.04,1.68,0.08,2.52,0.09c4.38,0.08,8.77,0.14,13.15,0.22c1.85,0.04,3.69,0.13,5.54,0.18c0.48,0.01,0.68,0.17,0.6,0.64
			c-0.12,0.7-0.23,1.41-0.31,2.11c-0.04,0.33-0.21,0.38-0.5,0.37c-0.58-0.01-1.16,0-1.74,0
			C302.63,392.45,302.63,392.43,302.63,392.41z"/>
		<path class="st4" d="M302.5,380.78c0.55,0.02,0.74,0.24,0.66,0.72c-0.13,0.81-0.19,1.62-0.33,2.43c-0.03,0.16-0.23,0.34-0.41,0.43
			c-0.5,0.25-0.51,0.39-0.1,0.76c0.15,0.13,0.27,0.4,0.25,0.58c-0.06,0.5-0.22,1-0.31,1.5c-0.08,0.44-0.42,0.62-0.78,0.62
			c-1.9,0.03-3.8,0.01-5.71,0.01c0.22-1.5,0.44-2.94,0.63-4.39c0.29-2.21,0.54-4.42,0.83-6.63c0.07-0.5,0.23-1,0.31-1.5
			c0.07-0.44,0.35-0.5,0.73-0.44c0.99,0.15,1.98,0.3,2.98,0.44c0.68,0.1,1.36,0.15,2.04,0.27c0.19,0.03,0.51,0.22,0.49,0.3
			c-0.05,0.38-0.09,0.87-0.35,1.08c-0.49,0.39-0.54,0.32-0.1,0.79c0.09,0.1,0.17,0.27,0.16,0.4c-0.03,0.58-0.06,1.16-0.18,1.72
			c-0.04,0.17-0.35,0.29-0.57,0.46c-0.2-0.57-0.31-1.04-0.52-1.46c-0.36-0.71-0.93-1.09-1.81-1.05c-2.06,0.09-3.46,2.25-2.6,4.07
			c0.24,0.5,0.64,0.8,1.21,0.88c0.21,0.03,0.42,0.05,0.63,0.06c1.69,0.07,2.1-0.2,2.71-1.74
			C302.42,380.99,302.46,380.9,302.5,380.78z"/>
		<path class="st5" d="M277.56,387.32c-0.69,0-1.35-0.06-1.99,0.02c-0.42,0.05-0.91,0.22-1.21,0.49c-1.4,1.31-1.28,3.16-0.17,4.56
			c0.37,0.46,0.87,0.58,1.45,0.55c0.91-0.05,1.83-0.05,2.74-0.1c0.63-0.04,0.9,0.33,0.74,0.82c-0.24,0.74,0.17,1.24,0.4,1.8
			c0.24,0.59,0.65,1.11,0.89,1.7c0.33,0.79,0.34,1.02-0.15,1.4c-0.23,0.18-0.44,0.18-0.65-0.02c-0.14-0.13-0.29-0.26-0.37-0.43
			c-0.47-0.91-1.31-1.45-2.14-1.99c-0.34-0.23-0.57,0-0.67,0.25c-0.19,0.51-0.41,1.04-0.43,1.56c-0.03,1.02,0.05,2.04,0.11,3.05
			c0.05,0.77,0.47,1.33,1.11,1.76c0.7,0.48,1.39,0.99,2.08,1.48c0.16,0.12,0.32,0.24,0.58,0.43c-0.72,0.04-1.25,0.07-1.74-0.44
			c-1.97-2.06-3.98-4.08-5.98-6.12c-0.28-0.28-0.34-0.53-0.15-0.92c0.22-0.45,0.4-0.97,0.42-1.46c0.05-1.65,0.04-3.3,0.01-4.95
			c-0.02-1.13,0.18-2.23,0.68-3.21c0.4-0.78,0.88-1.6,2-1.77C276.28,385.61,277.36,386.19,277.56,387.32z"/>
		<path class="st4" d="M276.38,404.27c-0.95-0.01-1.63-0.15-2.26-0.86c-1.96-2.2-4.04-4.31-6.09-6.45
			c-1.61-1.69-3.24-3.36-4.88-5.03c-0.44-0.44-0.93-0.83-1.41-1.23c-0.36-0.3-0.74-0.37-1.21-0.17c-0.36,0.15-0.77,0.2-1.17,0.24
			c-0.72,0.07-1,0.45-0.63,1.05c0.33,0.53,0.76,1.02,1.2,1.48c3.08,3.32,6.17,6.62,9.26,9.93c0.08,0.08,0.15,0.17,0.3,0.33
			c-1-0.07-1.84-0.05-2.55-0.85c-1.09-1.24-2.35-2.34-3.51-3.53c-0.23-0.24-0.38-0.6-0.45-0.93c-0.3-1.34-1.6-2.61-2.98-2.88
			c-0.12-0.02-0.25-0.11-0.33-0.2c-1.11-1.2-2.21-2.42-3.33-3.61c-0.62-0.66-0.68-0.86-0.32-1.68c0.01-0.03,0.04-0.06,0.05-0.09
			c0.26-0.75,0.65-1.17,1.61-1.09c0.7,0.06,1.44-0.25,2.15-0.42c0.47-0.11,0.81-0.02,1.18,0.32c4.2,3.92,8.08,8.12,12.02,12.27
			c0.97,1.03,2.01,2.01,3.01,3.01C276.12,403.98,276.21,404.08,276.38,404.27z"/>
		<path class="st4" d="M293.78,406.27c-1.08-0.1-2.08-0.17-3.07-0.3c-0.46-0.06-0.54-0.49-0.54-0.83c0-0.5,0.15-1.01,0.17-1.51
			c0.02-0.44,0.07-0.93-0.08-1.33c-0.32-0.86-0.74-1.69-1.14-2.52c-0.15-0.31-0.13-0.5,0.16-0.74c1.01-0.85,1.97-1.75,2.99-2.57
			c0.54-0.44,1.18-0.77,1.81-1.17c0.21,0.31,0.4,0.52,0.51,0.76c1.23,2.67,2.46,5.33,3.67,8.01c0.24,0.53,0.35,1.11,0.6,1.63
			c0.25,0.52-0.01,0.7-0.44,0.84c-0.83-1.21-1.65-2.41-2.47-3.61c-0.35-0.51-0.7-1.02-1.09-1.5c-0.45-0.55-1.27-0.62-1.84-0.21
			c-0.49,0.36-0.52,0.92-0.16,1.55c0.16,0.27,0.22,0.6,0.29,0.91C293.36,404.5,293.56,405.32,293.78,406.27z"/>
		<path class="st4" d="M301.46,393.5c-0.07,0.38-0.1,0.72-0.21,1.04c-0.06,0.17-0.23,0.32-0.39,0.42c-0.5,0.31-0.51,0.48-0.06,0.8
			c0.12,0.09,0.23,0.3,0.21,0.44c-0.12,0.91-0.27,1.82-0.41,2.72c-0.04,0.28-0.15,0.44-0.5,0.47c-0.19,0.02-0.36,0.25-0.54,0.39
			c0.13,0.14,0.26,0.27,0.37,0.42c0.1,0.13,0.26,0.29,0.26,0.43c-0.05,0.69-0.12,1.39-0.23,2.08c-0.02,0.15-0.24,0.38-0.37,0.38
			c-0.16,0-0.41-0.16-0.48-0.31c-0.96-2.02-1.89-4.05-2.86-6.07c-0.31-0.64-0.7-1.26-1.1-1.85c-0.29-0.43-0.32-0.84-0.12-1.35
			C297.16,393.5,299.28,393.5,301.46,393.5z"/>
		<path class="st4" d="M277.21,398.19c0.23,0.26,0.48,0.5,0.67,0.77c0.17,0.25,0.27,0.55,0.43,0.82c0.39,0.67,0.79,0.8,1.44,0.35
			c0.56-0.38,1.07-0.83,1.54-1.31c0.48-0.49,0.53-1.07,0.2-1.68c-0.32-0.6-0.61-1.21-0.91-1.82c-0.07-0.15-0.11-0.31-0.16-0.47
			c0.03-0.05,0.07-0.09,0.1-0.14c0.27,0.11,0.57,0.18,0.8,0.35c0.91,0.66,1.68,1.47,2.07,2.51c0.18,0.5,0.22,1.13,0.09,1.64
			c-0.45,1.8-0.31,3.56,0.07,5.34c0.03,0.12,0.04,0.23,0.06,0.35c0.01,0.05-0.01,0.09-0.03,0.19c-0.68-0.07-1.36-0.14-2.04-0.22
			c-0.08-0.01-0.18-0.06-0.22-0.12c-0.55-0.95-1.49-1.51-2.39-2.04c-1.43-0.83-2.07-1.96-1.9-3.55c0.02-0.23-0.01-0.48-0.01-0.71
			c0-0.05,0.02-0.1,0.04-0.15C277.1,398.27,277.16,398.23,277.21,398.19z"/>
		<path class="st4" d="M280.46,372.29c1.66-0.34,3.14-0.16,4.41,0.63c0.81,0.51,1.28,1.45,1.43,2.42c0.04,0.28-0.11,0.64-0.29,0.89
			c-0.68,0.97-1.38,1.93-2.13,2.86c-0.33,0.41-0.76,0.76-1.2,1.07c-0.79,0.55-1,1.45-1.48,2.19c-0.09,0.14,0.04,0.43,0.08,0.71
			c-0.65,0.9-1.45,1.03-2.49,0.3c0.16-0.2,0.32-0.38,0.48-0.58c0.51-0.66,1.02-1.33,1.53-1.99c0.44-0.57,0.88-1.14,1.32-1.72
			c0.21-0.27,0.39-0.57,0.6-0.84c0.46-0.62,0.73-1.26,0.42-2.04c-0.13-0.33-0.13-0.62,0.31-0.83c0.41-0.19,0.36-0.51-0.07-0.84
			C282.45,373.81,281.51,373.09,280.46,372.29z"/>
		<path class="st4" d="M321.16,391.07c0.72,0.04,1.33-0.03,1.86,0.13c1.57,0.46,2.86,1.34,3.73,2.73c0.2,0.32,0.22,0.66-0.05,0.95
			c-0.38,0.41-0.75,0.86-1.22,1.15c-0.63,0.39-1.34,0.67-2.04,0.95c-0.22,0.09-0.62,0.11-0.74-0.01c-0.15-0.15-0.22-0.53-0.13-0.75
			c0.76-1.88,0.24-3.45-1.19-4.81C321.33,391.36,321.31,391.29,321.16,391.07z"/>
		<path class="st4" d="M272.82,403.87c-0.42,0-0.76,0.03-1.09-0.01c-0.17-0.02-0.35-0.13-0.47-0.26c-1.69-1.77-3.38-3.55-5.06-5.33
			c-1.93-2.05-3.85-4.11-5.77-6.17c-0.07-0.07-0.11-0.17-0.16-0.25c0.38-0.35,0.67-0.26,0.99,0.07c1.96,2.02,3.94,4.03,5.9,6.06
			c1.79,1.85,3.57,3.71,5.36,5.56C272.61,403.63,272.68,403.72,272.82,403.87z"/>
		<path class="st4" d="M284.94,383.68c1.4-0.04,1.87-0.17,1.46-1.25c0.2-0.08,0.41-0.17,0.7-0.29c0.5,1.56,0.98,3.08,1.47,4.6
			c0.1,0.29-0.02,0.46-0.27,0.63c-0.58,0.4-1.23,0.35-1.88,0.29c-0.09-0.01-0.22-0.12-0.25-0.21
			C285.76,386.21,285.36,384.98,284.94,383.68z"/>
		<path class="st4" d="M319.35,404.16c-0.77,0.03-1.14-0.45-1.48-0.92c-0.09-0.13-0.08-0.45,0.02-0.57
			c0.44-0.54,0.91-1.06,1.39-1.57c0.64-0.66,1.59-0.58,2.11,0.16c0.48,0.68,0.49,0.69-0.06,1.34c-0.32,0.38-0.61,0.81-0.99,1.13
			C320.09,403.94,319.69,404.02,319.35,404.16z"/>
		<path class="st4" d="M281.08,384.83c0.34-0.41,0.65-0.75,0.93-1.12c0.2-0.25,0.39-0.26,0.72-0.21c1.15,0.19,1.49,0.91,1.63,1.92
			c0.11,0.74,0.42,1.45,0.65,2.17c-0.58,0.24-0.84-0.23-1.2-0.54C282.91,386.3,281.99,385.57,281.08,384.83z"/>
		<path class="st5" d="M285.41,405.26c-0.15-0.64-0.29-1.28-0.46-2c1.42,0.11,2.76,0.21,4.13,0.31c-0.04,0.71-0.07,1.38-0.11,2.1
			C287.82,405.54,286.65,405.4,285.41,405.26z"/>
		<path class="st4" d="M293.47,394.43c-1.69,1.32-3.33,2.6-5.02,3.92c-0.12-0.17-0.3-0.34-0.37-0.55c-0.05-0.15-0.03-0.41,0.07-0.51
			c1.26-1.19,2.61-2.26,4.2-3.03C292.82,394.02,293.23,394,293.47,394.43z"/>
		<path class="st4" d="M285.08,378.98c0.63-0.81,1.28-1.64,1.94-2.47c0.06,0,0.11-0.01,0.17-0.01c0.16,1.37,0.32,2.73,0.5,4.21
			C286.76,380.1,285.98,379.58,285.08,378.98z"/>
		<path class="st4" d="M300.07,381.94c-1.18-0.07-1.69-0.76-1.25-1.72c0.05-0.12,0.24-0.24,0.37-0.25c0.58-0.02,1.15,0,1.73,0
			c0.47,0,0.69,0.19,0.59,0.66c-0.04,0.18-0.04,0.37-0.1,0.55C301.18,381.79,300.84,381.98,300.07,381.94z"/>
		<path class="st4" d="M328.09,394.54c0.38,0.81,0.79,1.59,1.11,2.41c0.26,0.69,0.19,0.74-0.39,1.03c-0.81-0.48-1.55-0.92-2.24-1.33
			C327.01,396.03,327.52,395.33,328.09,394.54z"/>
		<path class="st4" d="M281.39,378.27c-1.22-0.88-1.24-2.16-1.61-3.48c0.77,0.55,1.46,0.99,2.07,1.52c0.19,0.16,0.23,0.61,0.15,0.88
			C281.89,377.58,281.61,377.91,281.39,378.27z"/>
		<path class="st4" d="M291.83,393.26c-1.16,0.75-2.31,1.5-3.53,2.29c-0.46-0.82-0.9-1.6-1.4-2.49c0.5,0.03,0.89,0.04,1.16,0.06
			c0.25,0.44,0.43,0.83,0.68,1.17c0.09,0.12,0.34,0.16,0.52,0.17c0.58,0.01,1-0.45,1.13-1.27
			C290.89,393.21,291.4,393.24,291.83,393.26z"/>
		<path class="st4" d="M296.92,406.68c-0.59-0.06-1.05-0.08-1.49-0.16c-0.14-0.03-0.3-0.21-0.36-0.35
			c-0.13-0.31-0.22-0.64-0.31-0.97c-0.23-0.85-0.44-1.7-0.61-2.58C295.04,403.92,295.94,405.23,296.92,406.68z"/>
		<path class="st4" d="M333.26,399.61c-0.9,1-0.63,0.93-1.77,0.4c-0.36-0.16-0.69-0.39-1.1-0.63c0.29-0.4,0.54-0.75,0.82-1.14
			C331.92,398.71,332.57,399.15,333.26,399.61z"/>
		<path class="st3" d="M311.42,390.87c-0.01,0.12,0,0.24-0.03,0.35c-0.09,0.36-0.23,0.72-0.66,0.75c-0.42,0.04-0.57-0.33-0.62-0.64
			c-0.07-0.49-0.11-0.99-0.07-1.48c0.02-0.17,0.33-0.4,0.53-0.43c0.17-0.02,0.48,0.16,0.56,0.33c0.17,0.34,0.23,0.73,0.34,1.1
			C311.46,390.86,311.44,390.87,311.42,390.87z"/>
		<path class="st4" d="M327.12,398.33c-0.98,0.42-1.95,0.89-2.95,1.23c-0.23,0.08-0.62-0.26-0.92-0.5c1.26-0.44,2.45-1.06,3.8-0.99
			C327.07,398.16,327.09,398.25,327.12,398.33z"/>
		<path class="st4" d="M319.09,391.93c1.29-0.05,2.14,0.44,2.48,1.43c-0.86-0.64-1.61-0.24-2.46,0.05
			C319.33,392.87,319.77,392.42,319.09,391.93z"/>
		<path class="st4" d="M334.67,400.19c0.21,0.49-0.48,1.34-1.49,1.89C332.83,401.41,333.46,400.6,334.67,400.19z"/>
		<path class="st6" d="M286.04,381.44c-0.68-0.33-1.28-0.63-1.92-0.95C285.07,379.94,285.84,380.31,286.04,381.44z"/>
		<path class="st4" d="M330.28,400.57c0.53,0.25,1.06,0.49,1.57,0.77c0.1,0.05,0.09,0.28,0.13,0.43c-0.06,0.04-0.12,0.08-0.18,0.11
			c-0.55-0.38-1.09-0.76-1.64-1.14C330.21,400.68,330.24,400.63,330.28,400.57z"/>
		<path class="st4" d="M322.88,400.22c-0.6,0.42-0.86,0.4-1.19-0.08c-0.08-0.11-0.01-0.32,0-0.49c0.14,0.01,0.3-0.03,0.4,0.03
			C322.35,399.83,322.59,400.02,322.88,400.22z"/>
		<path class="st6" d="M301.32,374.13c0.57,0.09,1.14,0.17,1.71,0.26c-0.01,0.06-0.02,0.11-0.03,0.17
			c-0.57-0.07-1.14-0.14-1.71-0.22C301.31,374.28,301.31,374.21,301.32,374.13z"/>
		<path class="st2" d="M300.98,430.86c-0.23,0.44-0.35,0.86-0.61,1.16c-0.36,0.42-0.94,0.31-1.22-0.15
			c-0.38-0.62-0.36-1.2,0.06-1.65c0.32-0.33,0.75-0.6,1.16-0.37C300.65,430.02,300.76,430.48,300.98,430.86z"/>
		<path class="st2" d="M297.56,412.15c0.01-0.75,0.29-1.05,0.97-1.04c0.62,0.01,1.04,0.5,1.01,1.19c-0.02,0.59-0.42,1.08-0.89,1.09
			C297.99,413.39,297.56,412.9,297.56,412.15z"/>
		<path class="st2" d="M297.95,421.64c0.02-0.81,0.45-1.26,1.21-1.23c0.54,0.02,0.85,0.42,0.83,1.08c-0.02,0.61-0.6,1.17-1.17,1.15
			C298.24,422.61,297.94,422.26,297.95,421.64z"/>
		<path class="st2" d="M319.74,425.72c-0.59,0-0.96-0.26-0.97-0.71c-0.02-0.89,0.35-1.44,0.97-1.45c0.59-0.01,1.05,0.42,1.04,0.98
			C320.78,425.21,320.32,425.72,319.74,425.72z"/>
		<path class="st2" d="M319.78,417.56c-0.01,0.65-0.42,1.15-0.94,1.13c-0.56-0.02-0.97-0.51-0.96-1.13c0.01-0.55,0.33-1.01,0.69-1
			C319.38,416.58,319.78,416.92,319.78,417.56z"/>
		<path class="st2" d="M319.97,408.75c-0.1,0.8-0.47,1.25-1.03,1.23c-0.05,0-0.12,0.01-0.15-0.02c-0.19-0.16-0.53-0.36-0.51-0.49
			c0.08-0.48,0.25-0.96,0.48-1.4c0.07-0.12,0.55-0.18,0.7-0.08C319.69,408.16,319.81,408.49,319.97,408.75z"/>
	</g>
	<g>
		<path class="st7" d="M306.16,404.86c0.02-0.12,0.04-0.24,0.09-0.35c0.2-0.46,0.46-0.87,0.8-1.22c0.05-0.05,0.11-0.09,0.16-0.14
			c0.03-0.02,0.05-0.04,0.08-0.07c0.03-0.02,0.05-0.04,0.08-0.06c0.03-0.03,0.07-0.05,0.1-0.08c0.02-0.02,0.05-0.04,0.07-0.05
			c0.03-0.02,0.07-0.05,0.1-0.07c0.03-0.02,0.07-0.04,0.11-0.06c0.06-0.04,0.13-0.07,0.19-0.11c0.27-0.14,0.54-0.24,0.83-0.32
			c0.51-0.13,1.03-0.15,1.56-0.07c0.01,0,0.02,0,0.03,0.01c0.03,0.01,0.04,0.02,0.03,0.05c-0.13,1.25-0.26,2.49-0.4,3.74
			c-0.01,0.05-0.01,0.1-0.02,0.16c0,0.01,0,0.01,0,0.02c1.07-0.68,2.14-1.37,3.21-2.05c0.01,0.01,0.01,0.02,0.02,0.02
			c0.21,0.34,0.38,0.71,0.5,1.1c0.06,0.2,0.1,0.4,0.13,0.61c0,0.02,0,0.03-0.02,0.04c-0.06,0.02-0.09,0-0.1-0.06
			c-0.01-0.06-0.02-0.13-0.04-0.19c-0.09-0.41-0.22-0.8-0.43-1.17c-0.03-0.05-0.06-0.1-0.1-0.15c-1.12,0.71-2.23,1.43-3.34,2.14
			c0-0.01,0-0.02,0-0.03c0.14-1.35,0.29-2.7,0.43-4.05c0-0.02,0-0.03-0.02-0.04c-0.15-0.03-0.31-0.04-0.46-0.05
			c-0.22,0-0.44,0.02-0.66,0.06c-0.44,0.08-0.85,0.23-1.25,0.44c-0.19,0.11-0.37,0.24-0.54,0.38c-0.17,0.14-0.32,0.3-0.47,0.48
			c-0.27,0.33-0.49,0.7-0.66,1.1C306.17,404.84,306.16,404.85,306.16,404.86z"/>
		<path class="st8" d="M313.86,403.57c-0.02-0.02-0.03-0.04-0.05-0.06c-0.21-0.27-0.43-0.53-0.69-0.77
			c-0.6-0.55-1.29-0.93-2.08-1.12c0,0-0.01,0-0.01,0c-0.04-0.01-0.05-0.02-0.05-0.05c0-0.03,0.03-0.07,0.06-0.07
			c0.05,0,0.09,0,0.14,0c0.18,0.01,0.36,0.05,0.53,0.09c0.18,0.04,0.34,0.11,0.51,0.17c0.15,0.06,0.3,0.14,0.45,0.22
			c0.14,0.08,0.27,0.16,0.38,0.26c0.33,0.3,0.6,0.65,0.78,1.06c0.02,0.05,0.05,0.11,0.07,0.16c0.01,0.03,0.01,0.06-0.02,0.09
			C313.87,403.57,313.86,403.57,313.86,403.57z"/>
	</g>
	<g>
		<rect x="272.88" y="444.85" class="st9" width="94.43" height="35.05"/>
		<path class="st10" d="M280.08,448.34v7.04h-1.47l-0.2-0.99c-0.5,0.78-1.29,1.18-2.35,1.18c-0.81,0-1.42-0.25-1.83-0.74
			c-0.41-0.49-0.62-1.27-0.62-2.33v-4.16h1.86v4.16c0,0.45,0.1,0.78,0.3,1c0.2,0.22,0.48,0.33,0.83,0.33c0.45,0,0.83-0.17,1.13-0.5
			s0.46-0.81,0.46-1.43v-3.56H280.08z"/>
		<path class="st10" d="M286.9,454.92c-0.24,0.19-0.55,0.34-0.92,0.46c-0.37,0.12-0.75,0.18-1.14,0.18c-0.79,0-1.39-0.24-1.78-0.73
			c-0.39-0.49-0.59-1.15-0.59-1.99v-2.93h-1.37v-1.29l1.37-0.24v-2.04h1.86v1.99h2.18v1.58h-2.18v2.6c0,0.43,0.08,0.76,0.23,1
			c0.15,0.24,0.39,0.36,0.71,0.36c0.33,0,0.66-0.1,1.01-0.29L286.9,454.92z"/>
		<path class="st10" d="M289.7,447.32h-1.86v-1.78h1.86V447.32z M289.7,455.39h-1.86v-7.04h1.86V455.39z"/>
		<path class="st10" d="M293.31,455.39h-1.86v-10.54h1.86V455.39z"/>
		<path class="st10" d="M296.92,447.32h-1.86v-1.78h1.86V447.32z M296.92,455.39h-1.86v-7.04h1.86V455.39z"/>
		<path class="st10" d="M303.67,454.92c-0.24,0.19-0.55,0.34-0.92,0.46c-0.37,0.12-0.75,0.18-1.14,0.18c-0.79,0-1.39-0.24-1.78-0.73
			s-0.59-1.15-0.59-1.99v-2.93h-1.37v-1.29l1.37-0.24v-2.04h1.86v1.99h2.18v1.58h-2.18v2.6c0,0.43,0.08,0.76,0.23,1
			c0.15,0.24,0.39,0.36,0.71,0.36c0.33,0,0.66-0.1,1.01-0.29L303.67,454.92z"/>
		<path class="st10" d="M308.69,451.79h-1.82v3.6h-1.96v-9.84h4.3c1.1,0,1.96,0.27,2.58,0.82s0.92,1.31,0.92,2.29
			c0,0.72-0.17,1.32-0.53,1.81c-0.35,0.49-0.84,0.85-1.48,1.07l2.24,3.85h-2.14L308.69,451.79z M306.88,450h2.23
			c0.54,0,0.95-0.11,1.21-0.33c0.27-0.22,0.4-0.56,0.4-1.01c0-0.46-0.12-0.79-0.36-1s-0.62-0.32-1.13-0.32h-2.34V450z"/>
	</g>
</g>
<g>
</g>
<g>
</g>
<g>
</g>
<g>
</g>
<g>
</g>
<g>
</g>
</svg>
