<?xml version="1.0" encoding="UTF-8" standalone="no"?>
<svg
   xmlns:dc="http://purl.org/dc/elements/1.1/"
   xmlns:cc="http://creativecommons.org/ns#"
   xmlns:rdf="http://www.w3.org/1999/02/22-rdf-syntax-ns#"
   xmlns:svg="http://www.w3.org/2000/svg"
   xmlns="http://www.w3.org/2000/svg"
   xmlns:sodipodi="http://sodipodi.sourceforge.net/DTD/sodipodi-0.dtd"
   xmlns:inkscape="http://www.inkscape.org/namespaces/inkscape"
   version="1.1"
   id="Calque_1"
   x="0px"
   y="0px"
   viewBox="0 0 137.28002 161.89001"
   xml:space="preserve"
   sodipodi:docname="logo-utilitR.svg"
   width="137.28003"
   height="161.89001"
   inkscape:version="1.0.1 (3bc2e813f5, 2020-09-07)"><metadata
   id="metadata131"><rdf:RDF><cc:Work
       rdf:about=""><dc:format>image/svg+xml</dc:format><dc:type
         rdf:resource="http://purl.org/dc/dcmitype/StillImage" /><dc:title></dc:title></cc:Work></rdf:RDF></metadata><defs
   id="defs129" /><sodipodi:namedview
   pagecolor="#ffffff"
   bordercolor="#666666"
   borderopacity="1"
   objecttolerance="10"
   gridtolerance="10"
   guidetolerance="10"
   inkscape:pageopacity="0"
   inkscape:pageshadow="2"
   inkscape:window-width="1920"
   inkscape:window-height="1017"
   id="namedview127"
   showgrid="false"
   inkscape:zoom="1.4278368"
   inkscape:cx="37.127795"
   inkscape:cy="146.70211"
   inkscape:window-x="-8"
   inkscape:window-y="-8"
   inkscape:window-maximized="1"
   inkscape:current-layer="Calque_1" />
<style
   type="text/css"
   id="style2">
	.st0{fill:#93BCBC;}
	.st1{fill:none;stroke:#FFFFFF;stroke-width:4;stroke-miterlimit:10;}
	.st2{stroke:#020203;stroke-width:0.25;stroke-miterlimit:10;}
	.st3{fill:#CF581B;stroke:#020203;stroke-width:0.25;stroke-miterlimit:10;}
	.st4{fill:#DDDDD3;}
	.st5{fill:#A04611;stroke:#020203;stroke-width:0.25;stroke-miterlimit:10;}
	.st6{fill:#FFFFFF;stroke:#020203;stroke-width:0.25;stroke-miterlimit:10;}
	.st7{stroke:#000000;stroke-width:0.3;stroke-miterlimit:10;}
	.st8{stroke:#020203;stroke-width:0.2;stroke-miterlimit:10;}
	.st9{fill:none;}
	.st10{fill:#FFFFFF;}
</style>
<g
   id="g112"
   transform="translate(-225.88187,-332.77509)">
	<polygon
   class="st0"
   points="227.69,375.26 227.69,455.05 294.22,494.95 360.76,455.05 360.76,375.26 294.22,335.36 "
   id="polygon4" />
	<polygon
   class="st1"
   points="235.26,379.49 294.26,344.06 353.26,379.49 353.26,450.34 294.26,485.77 235.26,450.34 "
   id="polygon6" />
	<g
   id="g86">
		<path
   class="st2"
   d="m 317.21,401.64 c 0.94,-0.93 1.5,-2.25 2.99,-2.06 0.27,-0.38 0.5,-0.68 0.71,-1 0.12,-0.18 0.27,-0.37 0.29,-0.57 0.1,-0.93 0.19,-1.86 0.23,-2.8 0.03,-0.77 -0.62,-1.21 -1.38,-0.97 -0.43,0.14 -0.86,0.29 -1.3,0.43 -0.17,0.05 -0.34,0.09 -0.51,0.11 -0.96,0.08 -1.41,-0.37 -1.33,-1.34 -0.1,0 -0.2,-0.03 -0.3,-0.01 -0.81,0.13 -1.33,-0.41 -1.03,-1.16 0.25,-0.63 0.6,-1.17 1.4,-1.45 1.96,-0.68 3.96,-0.77 5.99,-0.72 0.42,0.01 0.89,0.16 1.23,0.38 1.31,0.86 2.58,1.77 3.86,2.67 0.5,0.35 0.98,0.71 1.49,1.06 0.78,0.53 1.16,1.31 1.4,2.15 0.09,0.32 0.18,0.46 0.57,0.37 0.23,-0.05 0.54,0.03 0.74,0.15 1,0.63 1.99,1.28 2.96,1.96 0.51,0.36 0.83,1.78 0.42,2.25 -0.67,0.75 -1.43,1.44 -2.21,2.09 -0.37,0.31 -0.86,0.26 -1.29,0 -0.54,-0.32 -1.08,-0.64 -1.62,-0.96 -0.91,-0.53 -1.38,-1.38 -1.8,-2.26 -0.35,-0.72 -0.7,-0.75 -1.44,-0.45 -1.05,0.43 -2.13,0.8 -3.17,1.24 -0.41,0.17 -0.76,0.47 -1.13,0.72 -0.04,0.03 -0.04,0.12 -0.05,0.19 -0.07,1.09 -0.07,1.09 -0.7,2.05 0.73,0.43 0.64,1.15 0.64,1.84 0.01,1.19 0.07,2.38 0.06,3.57 -0.01,2.43 -0.08,4.87 -0.08,7.3 0,3.39 0.02,6.77 0.08,10.16 0.01,0.9 -0.44,1.4 -1.23,1.69 -1.15,0.42 -2.32,0.8 -3.48,1.19 -6.27,2.13 -12.55,4.26 -18.81,6.42 -1.33,0.46 -2.54,0.18 -3.77,-0.29 -1.6,-0.6 -3.21,-1.16 -4.8,-1.76 -3.03,-1.13 -6.05,-2.29 -9.08,-3.41 -5.57,-2.07 -11.14,-4.13 -16.71,-6.18 -0.53,-0.19 -0.89,-0.5 -0.98,-1.03 -0.19,-1.14 -0.42,-2.28 -0.48,-3.43 -0.27,-4.87 -0.48,-9.75 -0.7,-14.63 -0.02,-0.52 0.06,-1.05 0.12,-1.58 0.05,-0.41 0.23,-0.68 0.75,-0.67 0.43,0 0.87,-0.11 1.41,-0.18 -0.17,-0.19 -0.28,-0.31 -0.39,-0.42 -0.73,-0.78 -1.45,-1.58 -2.2,-2.34 -0.22,-0.22 -0.56,-0.33 -0.82,-0.52 -0.51,-0.36 -1.01,-0.74 -1.51,-1.11 -0.61,-0.45 -0.94,-1.01 -1.17,-1.74 -0.24,-0.75 -0.77,-1.45 -1.3,-2.07 -0.68,-0.8 -1.46,-1.52 -2.23,-2.25 -0.78,-0.74 -1.11,-1.55 -0.58,-2.56 0.3,-0.57 0.58,-1.16 0.87,-1.74 0.19,-0.38 0.56,-0.42 0.91,-0.34 0.76,0.18 1.46,0.01 2.17,-0.2 0.35,-0.1 0.71,-0.17 1.08,-0.22 0.71,-0.1 1.28,0.18 1.81,0.64 2.91,2.51 5.65,5.18 8.24,8 0.21,0.23 0.43,0.44 0.68,0.7 0.43,-0.73 0.7,-1.41 0.59,-2.22 -0.27,-2.04 -0.13,-4.08 0.23,-6.09 0.13,-0.73 0.52,-1.44 0.9,-2.1 0.82,-1.41 2.15,-1.63 3.7,-1.32 1.16,0.23 1.9,0.91 2.32,1.94 0.22,0.54 0.57,0.72 1.17,0.68 0.86,-0.05 1.72,-0.01 2.6,-0.01 -0.97,-0.77 -1.71,-1.82 -2.93,-2.37 -0.54,-0.24 -1.03,-0.62 -1.52,-0.97 -0.37,-0.27 -0.16,-0.58 0.03,-0.86 0.84,-1.19 1.69,-2.38 2.54,-3.57 0.14,-0.19 0.28,-0.39 0.21,-0.43 -0.25,-0.35 -0.52,-0.69 -0.75,-1.04 -0.23,-0.34 -0.48,-0.68 -0.62,-1.05 -0.35,-0.94 -0.63,-1.91 -0.94,-2.86 -0.24,-0.72 0.05,-1.09 0.79,-0.83 0.88,0.31 1.69,0.8 2.53,1.22 0.21,0.11 0.38,0.27 0.57,0.4 0.04,-0.05 0.07,-0.09 0.11,-0.14 -1.11,-0.8 -2.22,-1.62 -3.35,-2.4 -0.26,-0.18 -0.31,-0.5 0.02,-0.71 0.21,-0.13 0.49,-0.17 0.74,-0.26 1.66,-0.58 3.31,-0.31 4.93,0.16 0.87,0.25 1.53,0.79 1.98,1.59 0.25,0.45 0.68,0.82 0.93,1.27 0.33,0.59 0.7,1.21 0.83,1.85 0.24,1.21 0.44,2.45 0.46,3.69 0.04,2.65 0.86,5.07 1.97,7.44 0.06,0.12 0.24,0.27 0.37,0.28 1.11,0.02 2.21,0.01 3.38,0.01 0.24,-1.79 0.52,-3.5 0.7,-5.22 0.31,-2.96 0.66,-5.91 1.38,-8.81 0.21,-0.86 0.33,-0.94 1.24,-0.86 2.03,0.18 4.07,0.38 6.1,0.6 0.79,0.08 1.31,0.75 1.23,1.49 -0.38,3.33 -0.75,6.66 -1.14,9.99 -0.08,0.67 -0.25,1.34 -0.36,2.01 -0.05,0.26 -0.06,0.53 -0.1,0.89 0.58,0 1.11,0.04 1.62,-0.02 0.21,-0.02 0.43,-0.22 0.58,-0.39 0.36,-0.4 0.7,-0.81 1.01,-1.25 0.93,-1.32 3.57,-1.36 4.8,-0.44 1.74,1.29 2.49,3.04 2.71,5.05 0.16,1.45 0.29,2.91 0.36,4.37 0.04,0.95 -0.03,1.9 -0.1,2.85 -0.05,0.68 0.02,0.93 0.63,1.26 0.91,0.5 1.57,1.25 2.03,2.27 z m -5.17,-13.12 c 0.02,-0.6 -0.79,-1.67 -1.54,-1.93 -1.09,-0.38 -1.96,0.07 -2.74,0.73 -1.05,0.88 -1.25,2.13 -1.3,3.33 -0.12,2.92 -0.11,5.84 -0.13,8.76 -0.01,0.93 -0.33,1.6 -1.29,1.96 -1.28,0.48 -2.15,1.39 -2.75,2.56 -0.39,0.76 -0.77,1.53 -1.15,2.29 -0.32,0.64 -0.63,1.35 -1.37,1.58 -0.88,0.27 -1.81,0.43 -2.73,0.52 -0.52,0.05 -0.7,0.16 -0.7,0.67 0.03,1.99 -0.05,3.98 0.05,5.97 0.2,3.95 0.45,7.9 0.76,11.85 0.19,2.45 0.53,4.89 0.8,7.34 0.08,0.73 0.07,0.74 0.81,0.48 3.56,-1.2 7.12,-2.41 10.68,-3.61 3.77,-1.28 7.54,-2.57 11.32,-3.84 0.54,-0.18 0.89,-0.46 0.9,-1.04 0.02,-1.39 0.07,-2.79 0.05,-4.18 -0.02,-1.87 -0.13,-3.74 -0.14,-5.61 -0.02,-2.45 0.02,-4.9 0.05,-7.34 0.02,-1.13 0.07,-2.27 0.12,-3.4 0.02,-0.37 -0.14,-0.51 -0.51,-0.41 -0.18,0.05 -0.36,0.13 -0.54,0.19 -1.41,0.43 -2.82,0.19 -3.58,-1.33 -0.48,-0.95 -1.06,-1.85 -1.64,-2.75 -0.27,-0.43 -0.54,-0.88 -1.13,-1.04 -0.8,-0.22 -1.07,-0.76 -1.04,-1.57 0.05,-2.01 0.03,-4.02 0,-6.02 0,-0.29 -0.19,-0.57 -0.29,-0.86 -0.2,0.19 -0.43,0.35 -0.59,0.57 -0.78,1.11 -2.67,1.05 -3.33,-0.12 -0.41,-0.73 -0.52,-1.52 -0.4,-2.32 0.15,-1.05 0.81,-1.7 1.81,-1.74 0.52,-0.04 1.04,0.19 1.54,0.31 z m -15.21,45.81 c 0.01,-0.25 0.04,-0.4 0.03,-0.55 -0.15,-1.35 -0.34,-2.7 -0.47,-4.05 -0.36,-3.61 -0.74,-7.23 -1.02,-10.85 -0.14,-1.86 -0.1,-3.74 -0.12,-5.61 -0.02,-1.56 -0.01,-3.13 -0.02,-4.69 0,-0.29 0,-0.58 -0.43,-0.63 -1.99,-0.23 -3.98,-0.5 -5.97,-0.72 -2.95,-0.31 -5.91,-0.58 -8.87,-0.88 -1.96,-0.2 -3.91,-0.44 -5.87,-0.65 -2.48,-0.27 -4.96,-0.54 -7.45,-0.8 -0.75,-0.08 -1.49,-0.11 -2.29,-0.17 -0.04,0.56 -0.13,1.03 -0.11,1.5 0.04,1.09 0.15,2.17 0.19,3.26 0.12,2.92 0.21,5.84 0.34,8.77 0.06,1.27 0.21,2.54 0.32,3.81 0.04,0.54 0.27,0.94 0.82,1.13 0.53,0.18 1.05,0.37 1.58,0.56 7.99,2.93 15.98,5.86 23.97,8.78 1.75,0.62 3.52,1.17 5.37,1.79 z m 5.8,-41.92 c 0,0.02 0,0.03 0,0.05 0.58,0 1.16,-0.01 1.74,0 0.29,0.01 0.46,-0.05 0.5,-0.37 0.08,-0.71 0.19,-1.41 0.31,-2.11 0.08,-0.47 -0.12,-0.62 -0.6,-0.64 -1.85,-0.04 -3.69,-0.14 -5.54,-0.18 -4.38,-0.09 -8.77,-0.15 -13.15,-0.22 -0.84,-0.01 -1.68,-0.06 -2.52,-0.09 -2.32,-0.1 -4.64,-0.23 -6.96,-0.31 -1.29,-0.04 -1.63,0.28 -1.79,1.53 -0.03,0.2 -0.03,0.41 -0.01,0.61 0.07,0.73 0.43,1.02 1.19,1.04 5.79,0.13 11.59,0.25 17.38,0.39 3.15,0.08 6.3,0.2 9.45,0.3 z m -0.13,-11.63 c -0.04,0.11 -0.08,0.21 -0.11,0.3 -0.61,1.54 -1.02,1.8 -2.71,1.74 -0.21,-0.01 -0.42,-0.03 -0.63,-0.06 -0.56,-0.08 -0.97,-0.38 -1.21,-0.88 -0.86,-1.82 0.54,-3.98 2.6,-4.07 0.88,-0.04 1.46,0.34 1.81,1.05 0.21,0.42 0.32,0.89 0.52,1.46 0.21,-0.17 0.53,-0.28 0.57,-0.46 0.12,-0.56 0.15,-1.15 0.18,-1.72 0.01,-0.13 -0.07,-0.3 -0.16,-0.4 -0.45,-0.47 -0.39,-0.4 0.1,-0.79 0.26,-0.21 0.29,-0.7 0.35,-1.08 0.01,-0.08 -0.31,-0.27 -0.49,-0.3 -0.68,-0.11 -1.36,-0.17 -2.04,-0.27 -0.99,-0.14 -1.98,-0.29 -2.98,-0.44 -0.38,-0.06 -0.65,0.01 -0.73,0.44 -0.08,0.5 -0.25,0.99 -0.31,1.5 -0.29,2.21 -0.54,4.42 -0.83,6.63 -0.19,1.45 -0.41,2.89 -0.63,4.39 1.91,0 3.81,0.01 5.71,-0.01 0.36,-0.01 0.7,-0.18 0.78,-0.62 0.09,-0.5 0.25,-0.99 0.31,-1.5 0.02,-0.19 -0.1,-0.45 -0.25,-0.58 -0.41,-0.36 -0.4,-0.51 0.1,-0.76 0.17,-0.09 0.38,-0.27 0.41,-0.43 0.14,-0.8 0.2,-1.62 0.33,-2.43 0.05,-0.47 -0.14,-0.69 -0.69,-0.71 z m -24.94,6.54 c -0.21,-1.12 -1.29,-1.7 -2.41,-1.52 -1.12,0.18 -1.6,0.99 -2,1.77 -0.5,0.98 -0.7,2.08 -0.68,3.21 0.03,1.65 0.04,3.3 -0.01,4.95 -0.02,0.49 -0.2,1.01 -0.42,1.46 -0.19,0.39 -0.13,0.64 0.15,0.92 2,2.03 4.02,4.05 5.98,6.12 0.49,0.51 1.01,0.47 1.74,0.44 -0.26,-0.19 -0.42,-0.32 -0.58,-0.43 -0.69,-0.5 -1.38,-1 -2.08,-1.48 -0.64,-0.44 -1.07,-1 -1.11,-1.76 -0.06,-1.02 -0.14,-2.04 -0.11,-3.05 0.02,-0.53 0.23,-1.06 0.43,-1.56 0.09,-0.25 0.33,-0.48 0.67,-0.25 0.83,0.55 1.67,1.08 2.14,1.99 0.08,0.16 0.24,0.29 0.37,0.43 0.2,0.2 0.42,0.2 0.65,0.02 0.48,-0.38 0.47,-0.62 0.15,-1.4 -0.24,-0.59 -0.65,-1.11 -0.89,-1.7 -0.23,-0.56 -0.64,-1.06 -0.4,-1.8 0.16,-0.49 -0.11,-0.86 -0.74,-0.82 -0.91,0.06 -1.83,0.05 -2.74,0.1 -0.58,0.03 -1.08,-0.08 -1.45,-0.55 -1.11,-1.39 -1.23,-3.24 0.17,-4.56 0.3,-0.28 0.79,-0.44 1.21,-0.49 0.61,-0.1 1.27,-0.04 1.96,-0.04 z m -1.18,16.95 c -0.18,-0.19 -0.26,-0.29 -0.36,-0.39 -1,-1 -2.04,-1.98 -3.01,-3.01 -3.94,-4.15 -7.82,-8.35 -12.02,-12.27 -0.36,-0.34 -0.7,-0.44 -1.18,-0.32 -0.71,0.17 -1.45,0.47 -2.15,0.42 -0.96,-0.08 -1.36,0.34 -1.61,1.09 -0.01,0.03 -0.03,0.06 -0.05,0.09 -0.36,0.81 -0.3,1.02 0.32,1.68 1.12,1.19 2.22,2.41 3.33,3.61 0.09,0.09 0.21,0.18 0.33,0.2 1.39,0.27 2.69,1.54 2.98,2.88 0.07,0.33 0.22,0.69 0.45,0.93 1.16,1.19 2.42,2.29 3.51,3.53 0.7,0.8 1.55,0.77 2.55,0.85 -0.14,-0.16 -0.22,-0.25 -0.3,-0.33 -3.09,-3.31 -6.18,-6.61 -9.26,-9.93 -0.43,-0.47 -0.86,-0.95 -1.2,-1.48 -0.37,-0.59 -0.09,-0.98 0.63,-1.05 0.4,-0.04 0.81,-0.09 1.17,-0.24 0.47,-0.2 0.85,-0.13 1.21,0.17 0.48,0.4 0.98,0.79 1.41,1.23 1.64,1.66 3.26,3.34 4.88,5.03 2.05,2.13 4.12,4.24 6.09,6.45 0.65,0.71 1.33,0.85 2.28,0.86 z m 17.4,2 c -0.23,-0.95 -0.42,-1.77 -0.63,-2.59 -0.08,-0.31 -0.14,-0.64 -0.29,-0.91 -0.36,-0.63 -0.32,-1.19 0.16,-1.55 0.57,-0.42 1.4,-0.34 1.84,0.21 0.39,0.48 0.74,1 1.09,1.5 0.83,1.19 1.64,2.39 2.47,3.61 0.43,-0.14 0.69,-0.32 0.44,-0.84 -0.25,-0.52 -0.36,-1.1 -0.6,-1.63 -1.21,-2.68 -2.44,-5.34 -3.67,-8.01 -0.11,-0.24 -0.3,-0.45 -0.51,-0.76 -0.63,0.4 -1.27,0.73 -1.81,1.17 -1.02,0.83 -1.98,1.73 -2.99,2.57 -0.28,0.24 -0.31,0.43 -0.16,0.74 0.41,0.83 0.83,1.65 1.14,2.52 0.15,0.4 0.1,0.88 0.08,1.33 -0.03,0.51 -0.17,1.01 -0.17,1.51 0,0.34 0.08,0.77 0.54,0.83 1,0.13 1.99,0.2 3.07,0.3 z m 7.68,-12.77 c -2.18,0 -4.3,0 -6.42,0 -0.21,0.51 -0.17,0.92 0.12,1.35 0.4,0.6 0.79,1.21 1.1,1.85 0.97,2.02 1.9,4.05 2.86,6.07 0.07,0.15 0.31,0.31 0.48,0.31 0.13,0 0.34,-0.23 0.37,-0.38 0.11,-0.69 0.19,-1.38 0.23,-2.08 0.01,-0.14 -0.15,-0.29 -0.26,-0.43 -0.11,-0.15 -0.25,-0.28 -0.37,-0.42 0.18,-0.14 0.35,-0.37 0.54,-0.39 0.34,-0.04 0.45,-0.2 0.5,-0.47 0.14,-0.91 0.29,-1.81 0.41,-2.72 0.02,-0.14 -0.09,-0.35 -0.21,-0.44 -0.45,-0.32 -0.44,-0.49 0.06,-0.8 0.16,-0.1 0.33,-0.26 0.39,-0.42 0.1,-0.31 0.13,-0.65 0.2,-1.03 z m -24.25,4.69 c -0.05,0.04 -0.1,0.07 -0.15,0.11 -0.01,0.05 -0.04,0.1 -0.04,0.15 0,0.24 0.03,0.48 0.01,0.71 -0.17,1.59 0.47,2.72 1.9,3.55 0.9,0.52 1.84,1.08 2.39,2.04 0.03,0.06 0.14,0.11 0.22,0.12 0.67,0.08 1.35,0.15 2.04,0.22 0.02,-0.09 0.03,-0.14 0.03,-0.19 -0.01,-0.12 -0.03,-0.24 -0.06,-0.35 -0.38,-1.78 -0.52,-3.54 -0.07,-5.34 0.13,-0.52 0.09,-1.14 -0.09,-1.64 -0.38,-1.04 -1.15,-1.85 -2.07,-2.51 -0.23,-0.16 -0.53,-0.23 -0.8,-0.35 -0.03,0.05 -0.07,0.09 -0.1,0.14 0.05,0.16 0.09,0.32 0.16,0.47 0.3,0.61 0.59,1.22 0.91,1.82 0.33,0.61 0.27,1.2 -0.2,1.68 -0.47,0.48 -0.99,0.93 -1.54,1.31 -0.65,0.45 -1.05,0.32 -1.44,-0.35 -0.15,-0.27 -0.25,-0.57 -0.43,-0.82 -0.2,-0.27 -0.45,-0.51 -0.67,-0.77 z m 11.78,4.06 c -0.09,-0.23 -0.15,-0.38 -0.22,-0.53 -0.57,-1.37 -1.15,-2.73 -2.04,-3.95 -0.27,-0.37 -0.3,-0.76 0.16,-0.99 0.41,-0.21 0.37,-0.45 0.19,-0.78 -0.5,-0.92 -0.98,-1.84 -1.49,-2.75 -0.06,-0.11 -0.22,-0.24 -0.34,-0.24 -1.48,-0.04 -2.96,-0.06 -4.43,-0.07 -0.34,0 -0.62,0.14 -0.59,0.58 0.14,0.03 0.27,0.08 0.4,0.1 2.01,0.25 3.36,1.44 4.44,2.97 0.5,0.72 0.68,1.51 0.33,2.36 -0.16,0.39 -0.27,0.81 -0.39,1.21 -0.38,1.29 0.04,1.86 1.42,1.94 0.82,0.05 1.62,0.1 2.56,0.15 z m -8.53,-29.96 c 1.05,0.8 1.99,1.51 2.92,2.23 0.43,0.33 0.48,0.64 0.07,0.84 -0.44,0.21 -0.44,0.5 -0.31,0.83 0.31,0.78 0.04,1.42 -0.42,2.04 -0.21,0.28 -0.39,0.57 -0.6,0.84 -0.43,0.58 -0.88,1.15 -1.32,1.72 -0.51,0.66 -1.02,1.33 -1.53,1.99 -0.15,0.2 -0.32,0.39 -0.48,0.58 1.04,0.73 1.84,0.6 2.49,-0.3 -0.04,-0.28 -0.18,-0.57 -0.08,-0.71 0.48,-0.73 0.69,-1.64 1.48,-2.19 0.44,-0.31 0.87,-0.66 1.2,-1.07 0.75,-0.92 1.45,-1.89 2.13,-2.86 0.18,-0.25 0.33,-0.61 0.29,-0.89 -0.15,-0.97 -0.62,-1.91 -1.43,-2.42 -1.27,-0.78 -2.75,-0.97 -4.41,-0.63 z m 20.83,30.27 c 0.06,0.02 0.11,0.03 0.17,0.05 0.72,-1.09 1.73,-1.81 2.94,-2.31 0.48,-0.2 0.78,-0.6 0.77,-1.13 -0.01,-1.51 -0.05,-3.03 -0.07,-4.54 -0.01,-0.56 -0.31,-0.86 -0.85,-0.93 -0.44,-0.06 -0.89,-0.05 -1.35,-0.08 -0.54,3.02 -1.08,5.98 -1.61,8.94 z m 19.87,-11.49 c 0.15,0.22 0.18,0.29 0.22,0.33 1.43,1.37 1.95,2.93 1.19,4.81 -0.09,0.21 -0.02,0.59 0.13,0.75 0.12,0.12 0.52,0.1 0.74,0.01 0.7,-0.28 1.41,-0.56 2.04,-0.95 0.47,-0.29 0.84,-0.74 1.22,-1.15 0.26,-0.28 0.25,-0.62 0.05,-0.95 -0.86,-1.39 -2.15,-2.26 -3.73,-2.73 -0.54,-0.15 -1.15,-0.08 -1.86,-0.12 z m -48.34,12.8 c -0.14,-0.16 -0.21,-0.25 -0.29,-0.33 -1.79,-1.86 -3.57,-3.71 -5.36,-5.56 -1.96,-2.02 -3.94,-4.03 -5.9,-6.06 -0.32,-0.33 -0.62,-0.42 -0.99,-0.07 0.05,0.08 0.09,0.18 0.16,0.25 1.92,2.06 3.84,4.12 5.77,6.17 1.68,1.78 3.37,3.56 5.06,5.33 0.12,0.12 0.3,0.24 0.47,0.26 0.32,0.04 0.65,0.01 1.08,0.01 z m 12.12,-20.19 c 0.42,1.3 0.82,2.53 1.23,3.77 0.03,0.09 0.16,0.2 0.25,0.21 0.65,0.05 1.29,0.1 1.88,-0.29 0.25,-0.17 0.36,-0.33 0.27,-0.63 -0.49,-1.51 -0.97,-3.03 -1.47,-4.6 -0.29,0.12 -0.5,0.2 -0.7,0.29 0.41,1.08 -0.06,1.21 -1.46,1.25 z m 34.41,20.48 c 0.34,-0.14 0.74,-0.22 1,-0.44 0.38,-0.32 0.67,-0.74 0.99,-1.13 0.55,-0.65 0.54,-0.66 0.06,-1.34 -0.52,-0.74 -1.47,-0.82 -2.11,-0.16 -0.49,0.5 -0.96,1.02 -1.39,1.57 -0.1,0.13 -0.11,0.44 -0.02,0.57 0.34,0.48 0.71,0.96 1.47,0.93 z m -38.27,-19.33 c 0.91,0.74 1.84,1.47 2.73,2.23 0.36,0.31 0.62,0.78 1.2,0.54 -0.22,-0.72 -0.54,-1.43 -0.65,-2.17 -0.14,-1.01 -0.48,-1.72 -1.63,-1.92 -0.33,-0.05 -0.52,-0.05 -0.72,0.21 -0.28,0.36 -0.59,0.7 -0.93,1.11 z m 4.33,20.43 c 1.23,0.14 2.41,0.28 3.56,0.41 0.04,-0.72 0.07,-1.39 0.11,-2.1 -1.37,-0.1 -2.7,-0.2 -4.13,-0.31 0.17,0.73 0.32,1.36 0.46,2 z m 8.06,-10.83 c -0.24,-0.43 -0.65,-0.41 -1.12,-0.17 -1.59,0.77 -2.94,1.84 -4.2,3.03 -0.1,0.1 -0.13,0.36 -0.07,0.51 0.07,0.21 0.25,0.39 0.37,0.55 1.68,-1.32 3.33,-2.61 5.02,-3.92 z m -8.39,-15.45 c 0.9,0.6 1.68,1.12 2.6,1.73 -0.17,-1.48 -0.33,-2.84 -0.5,-4.21 -0.06,0 -0.11,0.01 -0.17,0.01 -0.64,0.83 -1.3,1.66 -1.93,2.47 z m 14.99,2.96 c 0.77,0.04 1.11,-0.14 1.34,-0.76 0.06,-0.17 0.07,-0.36 0.1,-0.55 0.1,-0.47 -0.12,-0.66 -0.59,-0.66 -0.58,0 -1.16,-0.02 -1.73,0 -0.13,0 -0.31,0.13 -0.37,0.25 -0.44,0.96 0.06,1.65 1.25,1.72 z m 28.02,12.6 c -0.57,0.79 -1.08,1.48 -1.52,2.1 0.69,0.41 1.44,0.85 2.24,1.33 0.58,-0.29 0.65,-0.34 0.39,-1.03 -0.32,-0.81 -0.73,-1.59 -1.11,-2.4 z m -46.7,-16.27 c 0.22,-0.37 0.5,-0.7 0.61,-1.07 0.08,-0.27 0.03,-0.72 -0.15,-0.88 -0.6,-0.53 -1.3,-0.97 -2.07,-1.52 0.37,1.31 0.39,2.59 1.61,3.47 z m 10.44,14.99 c -0.44,-0.03 -0.94,-0.05 -1.44,-0.08 -0.13,0.82 -0.55,1.28 -1.13,1.27 -0.18,0 -0.44,-0.05 -0.52,-0.17 -0.25,-0.34 -0.43,-0.73 -0.68,-1.17 -0.26,-0.01 -0.65,-0.03 -1.16,-0.06 0.5,0.89 0.94,1.67 1.4,2.49 1.22,-0.78 2.38,-1.53 3.53,-2.28 z m 5.09,13.42 c -0.99,-1.44 -1.88,-2.75 -2.78,-4.07 0.17,0.87 0.39,1.73 0.61,2.58 0.09,0.33 0.17,0.66 0.31,0.97 0.06,0.15 0.22,0.33 0.36,0.35 0.45,0.09 0.91,0.11 1.5,0.17 z m 36.34,-7.07 c -0.68,-0.46 -1.34,-0.89 -2.05,-1.37 -0.28,0.39 -0.53,0.75 -0.82,1.14 0.41,0.24 0.74,0.46 1.1,0.63 1.14,0.52 0.86,0.6 1.77,-0.4 z m -21.84,-8.74 c 0.02,-0.01 0.04,-0.01 0.06,-0.02 -0.11,-0.37 -0.17,-0.76 -0.34,-1.1 -0.08,-0.17 -0.39,-0.35 -0.56,-0.33 -0.2,0.03 -0.52,0.26 -0.53,0.43 -0.05,0.49 -0.01,0.99 0.07,1.48 0.05,0.31 0.19,0.67 0.62,0.64 0.43,-0.04 0.58,-0.39 0.66,-0.75 0.02,-0.11 0.02,-0.23 0.02,-0.35 z m 15.7,7.46 c -0.03,-0.08 -0.05,-0.17 -0.08,-0.25 -1.35,-0.07 -2.53,0.54 -3.8,0.99 0.3,0.24 0.69,0.58 0.92,0.5 1.01,-0.35 1.98,-0.82 2.96,-1.24 z m -8.03,-6.4 c 0.68,0.49 0.24,0.94 0.02,1.47 0.86,-0.29 1.6,-0.69 2.46,-0.05 -0.34,-0.98 -1.19,-1.47 -2.48,-1.42 z m 15.58,8.26 c -1.21,0.41 -1.84,1.22 -1.49,1.89 1.01,-0.55 1.7,-1.4 1.49,-1.89 z m -48.63,-18.75 c -0.2,-1.13 -0.97,-1.5 -1.92,-0.95 0.64,0.32 1.24,0.61 1.92,0.95 z m 44.24,19.13 c -0.04,0.05 -0.07,0.11 -0.11,0.16 0.55,0.38 1.09,0.76 1.64,1.14 0.06,-0.04 0.12,-0.08 0.18,-0.11 -0.04,-0.15 -0.04,-0.37 -0.13,-0.43 -0.52,-0.27 -1.05,-0.5 -1.58,-0.76 z m -7.4,-0.35 c -0.28,-0.2 -0.52,-0.39 -0.79,-0.54 -0.11,-0.06 -0.27,-0.02 -0.4,-0.03 0,0.17 -0.07,0.37 0,0.49 0.33,0.48 0.59,0.5 1.19,0.08 z m -21.56,-26.09 c -0.01,0.07 -0.02,0.14 -0.03,0.21 0.57,0.07 1.14,0.14 1.71,0.22 0.01,-0.06 0.02,-0.11 0.03,-0.17 -0.57,-0.08 -1.14,-0.17 -1.71,-0.26 z"
   id="path8" />
		<path
   class="st3"
   d="m 312.04,388.52 c -0.5,-0.11 -1.02,-0.34 -1.53,-0.33 -1,0.03 -1.66,0.69 -1.81,1.74 -0.12,0.8 -0.01,1.6 0.4,2.32 0.67,1.18 2.55,1.23 3.33,0.12 0.15,-0.22 0.39,-0.38 0.59,-0.57 0.1,0.29 0.29,0.57 0.29,0.86 0.03,2.01 0.05,4.02 0,6.02 -0.02,0.81 0.25,1.35 1.04,1.57 0.59,0.16 0.85,0.61 1.13,1.04 0.57,0.9 1.16,1.8 1.64,2.75 0.76,1.51 2.18,1.76 3.58,1.33 0.18,-0.06 0.36,-0.14 0.54,-0.19 0.37,-0.1 0.52,0.04 0.51,0.41 -0.05,1.13 -0.1,2.27 -0.12,3.4 -0.03,2.45 -0.07,4.9 -0.05,7.34 0.01,1.87 0.12,3.74 0.14,5.61 0.02,1.39 -0.03,2.79 -0.05,4.18 -0.01,0.58 -0.37,0.86 -0.9,1.04 -3.78,1.27 -7.55,2.56 -11.32,3.84 -3.56,1.21 -7.12,2.41 -10.68,3.61 -0.74,0.25 -0.73,0.25 -0.81,-0.48 -0.27,-2.45 -0.61,-4.89 -0.8,-7.34 -0.31,-3.95 -0.56,-7.9 -0.76,-11.85 -0.1,-1.98 -0.02,-3.98 -0.05,-5.97 -0.01,-0.51 0.18,-0.62 0.7,-0.67 0.92,-0.09 1.85,-0.25 2.73,-0.52 0.74,-0.23 1.05,-0.94 1.37,-1.58 0.38,-0.76 0.76,-1.53 1.15,-2.29 0.6,-1.17 1.47,-2.08 2.75,-2.56 0.96,-0.36 1.28,-1.03 1.29,-1.96 0.02,-2.92 0.01,-5.84 0.13,-8.76 0.05,-1.2 0.25,-2.46 1.3,-3.33 0.78,-0.66 1.65,-1.11 2.74,-0.73 0.74,0.28 1.55,1.35 1.53,1.95 z m -11.06,42.34 c -0.22,-0.38 -0.33,-0.84 -0.62,-1.01 -0.4,-0.23 -0.84,0.03 -1.16,0.37 -0.42,0.44 -0.44,1.03 -0.06,1.65 0.29,0.47 0.87,0.58 1.22,0.15 0.26,-0.31 0.39,-0.72 0.62,-1.16 z m -3.42,-18.71 c -0.01,0.75 0.42,1.24 1.09,1.23 0.47,-0.01 0.88,-0.5 0.89,-1.09 0.02,-0.69 -0.39,-1.17 -1.01,-1.19 -0.68,-0.01 -0.96,0.3 -0.97,1.05 z m 0.39,9.49 c -0.02,0.62 0.29,0.97 0.86,0.99 0.57,0.02 1.15,-0.54 1.17,-1.15 0.03,-0.66 -0.28,-1.07 -0.83,-1.08 -0.75,-0.02 -1.18,0.43 -1.2,1.24 z m 21.79,4.08 c 0.58,0 1.04,-0.51 1.05,-1.18 0.01,-0.56 -0.45,-0.99 -1.04,-0.98 -0.62,0.01 -0.99,0.56 -0.97,1.45 0,0.45 0.36,0.71 0.96,0.71 z m 0.04,-8.16 c 0.01,-0.64 -0.4,-0.98 -1.22,-1 -0.36,-0.01 -0.68,0.45 -0.69,1 -0.01,0.63 0.4,1.11 0.96,1.13 0.52,0.03 0.94,-0.47 0.95,-1.13 z m 0.19,-8.81 c -0.16,-0.26 -0.27,-0.59 -0.51,-0.75 -0.15,-0.1 -0.64,-0.04 -0.7,0.08 -0.23,0.43 -0.4,0.91 -0.48,1.4 -0.02,0.13 0.32,0.33 0.51,0.49 0.03,0.03 0.1,0.01 0.15,0.02 0.56,0.01 0.93,-0.45 1.03,-1.24 z"
   id="path10" />
		<path
   class="st3"
   d="m 296.83,434.33 c -1.85,-0.62 -3.62,-1.17 -5.36,-1.81 -8,-2.91 -15.98,-5.85 -23.97,-8.78 -0.52,-0.19 -1.05,-0.38 -1.58,-0.56 -0.55,-0.19 -0.78,-0.59 -0.82,-1.13 -0.1,-1.27 -0.26,-2.54 -0.32,-3.81 -0.14,-2.92 -0.22,-5.84 -0.34,-8.77 -0.04,-1.09 -0.15,-2.17 -0.19,-3.26 -0.02,-0.47 0.06,-0.94 0.11,-1.5 0.79,0.06 1.54,0.09 2.29,0.17 2.48,0.26 4.97,0.53 7.45,0.8 1.96,0.21 3.91,0.45 5.87,0.65 2.96,0.3 5.91,0.57 8.87,0.88 1.99,0.21 3.98,0.48 5.97,0.72 0.43,0.05 0.43,0.34 0.43,0.63 0.01,1.56 0,3.13 0.02,4.69 0.02,1.87 -0.02,3.75 0.12,5.61 0.28,3.62 0.66,7.23 1.02,10.85 0.13,1.35 0.32,2.7 0.47,4.05 0,0.17 -0.03,0.32 -0.04,0.57 z"
   id="path12" />
		<path
   class="st3"
   d="m 302.63,392.41 c -3.15,-0.1 -6.3,-0.22 -9.45,-0.3 -5.79,-0.15 -11.59,-0.27 -17.38,-0.39 -0.76,-0.02 -1.12,-0.31 -1.19,-1.04 -0.02,-0.2 -0.02,-0.41 0.01,-0.61 0.16,-1.25 0.5,-1.57 1.79,-1.53 2.32,0.08 4.64,0.2 6.96,0.31 0.84,0.04 1.68,0.08 2.52,0.09 4.38,0.08 8.77,0.14 13.15,0.22 1.85,0.04 3.69,0.13 5.54,0.18 0.48,0.01 0.68,0.17 0.6,0.64 -0.12,0.7 -0.23,1.41 -0.31,2.11 -0.04,0.33 -0.21,0.38 -0.5,0.37 -0.58,-0.01 -1.16,0 -1.74,0 0,-0.01 0,-0.03 0,-0.05 z"
   id="path14" />
		<path
   class="st4"
   d="m 302.5,380.78 c 0.55,0.02 0.74,0.24 0.66,0.72 -0.13,0.81 -0.19,1.62 -0.33,2.43 -0.03,0.16 -0.23,0.34 -0.41,0.43 -0.5,0.25 -0.51,0.39 -0.1,0.76 0.15,0.13 0.27,0.4 0.25,0.58 -0.06,0.5 -0.22,1 -0.31,1.5 -0.08,0.44 -0.42,0.62 -0.78,0.62 -1.9,0.03 -3.8,0.01 -5.71,0.01 0.22,-1.5 0.44,-2.94 0.63,-4.39 0.29,-2.21 0.54,-4.42 0.83,-6.63 0.07,-0.5 0.23,-1 0.31,-1.5 0.07,-0.44 0.35,-0.5 0.73,-0.44 0.99,0.15 1.98,0.3 2.98,0.44 0.68,0.1 1.36,0.15 2.04,0.27 0.19,0.03 0.51,0.22 0.49,0.3 -0.05,0.38 -0.09,0.87 -0.35,1.08 -0.49,0.39 -0.54,0.32 -0.1,0.79 0.09,0.1 0.17,0.27 0.16,0.4 -0.03,0.58 -0.06,1.16 -0.18,1.72 -0.04,0.17 -0.35,0.29 -0.57,0.46 -0.2,-0.57 -0.31,-1.04 -0.52,-1.46 -0.36,-0.71 -0.93,-1.09 -1.81,-1.05 -2.06,0.09 -3.46,2.25 -2.6,4.07 0.24,0.5 0.64,0.8 1.21,0.88 0.21,0.03 0.42,0.05 0.63,0.06 1.69,0.07 2.1,-0.2 2.71,-1.74 0.06,-0.1 0.1,-0.19 0.14,-0.31 z"
   id="path16" />
		<path
   class="st5"
   d="m 277.56,387.32 c -0.69,0 -1.35,-0.06 -1.99,0.02 -0.42,0.05 -0.91,0.22 -1.21,0.49 -1.4,1.31 -1.28,3.16 -0.17,4.56 0.37,0.46 0.87,0.58 1.45,0.55 0.91,-0.05 1.83,-0.05 2.74,-0.1 0.63,-0.04 0.9,0.33 0.74,0.82 -0.24,0.74 0.17,1.24 0.4,1.8 0.24,0.59 0.65,1.11 0.89,1.7 0.33,0.79 0.34,1.02 -0.15,1.4 -0.23,0.18 -0.44,0.18 -0.65,-0.02 -0.14,-0.13 -0.29,-0.26 -0.37,-0.43 -0.47,-0.91 -1.31,-1.45 -2.14,-1.99 -0.34,-0.23 -0.57,0 -0.67,0.25 -0.19,0.51 -0.41,1.04 -0.43,1.56 -0.03,1.02 0.05,2.04 0.11,3.05 0.05,0.77 0.47,1.33 1.11,1.76 0.7,0.48 1.39,0.99 2.08,1.48 0.16,0.12 0.32,0.24 0.58,0.43 -0.72,0.04 -1.25,0.07 -1.74,-0.44 -1.97,-2.06 -3.98,-4.08 -5.98,-6.12 -0.28,-0.28 -0.34,-0.53 -0.15,-0.92 0.22,-0.45 0.4,-0.97 0.42,-1.46 0.05,-1.65 0.04,-3.3 0.01,-4.95 -0.02,-1.13 0.18,-2.23 0.68,-3.21 0.4,-0.78 0.88,-1.6 2,-1.77 1.16,-0.17 2.24,0.41 2.44,1.54 z"
   id="path18" />
		<path
   class="st4"
   d="m 276.38,404.27 c -0.95,-0.01 -1.63,-0.15 -2.26,-0.86 -1.96,-2.2 -4.04,-4.31 -6.09,-6.45 -1.61,-1.69 -3.24,-3.36 -4.88,-5.03 -0.44,-0.44 -0.93,-0.83 -1.41,-1.23 -0.36,-0.3 -0.74,-0.37 -1.21,-0.17 -0.36,0.15 -0.77,0.2 -1.17,0.24 -0.72,0.07 -1,0.45 -0.63,1.05 0.33,0.53 0.76,1.02 1.2,1.48 3.08,3.32 6.17,6.62 9.26,9.93 0.08,0.08 0.15,0.17 0.3,0.33 -1,-0.07 -1.84,-0.05 -2.55,-0.85 -1.09,-1.24 -2.35,-2.34 -3.51,-3.53 -0.23,-0.24 -0.38,-0.6 -0.45,-0.93 -0.3,-1.34 -1.6,-2.61 -2.98,-2.88 -0.12,-0.02 -0.25,-0.11 -0.33,-0.2 -1.11,-1.2 -2.21,-2.42 -3.33,-3.61 -0.62,-0.66 -0.68,-0.86 -0.32,-1.68 0.01,-0.03 0.04,-0.06 0.05,-0.09 0.26,-0.75 0.65,-1.17 1.61,-1.09 0.7,0.06 1.44,-0.25 2.15,-0.42 0.47,-0.11 0.81,-0.02 1.18,0.32 4.2,3.92 8.08,8.12 12.02,12.27 0.97,1.03 2.01,2.01 3.01,3.01 0.08,0.1 0.17,0.2 0.34,0.39 z"
   id="path20" />
		<path
   class="st4"
   d="m 293.78,406.27 c -1.08,-0.1 -2.08,-0.17 -3.07,-0.3 -0.46,-0.06 -0.54,-0.49 -0.54,-0.83 0,-0.5 0.15,-1.01 0.17,-1.51 0.02,-0.44 0.07,-0.93 -0.08,-1.33 -0.32,-0.86 -0.74,-1.69 -1.14,-2.52 -0.15,-0.31 -0.13,-0.5 0.16,-0.74 1.01,-0.85 1.97,-1.75 2.99,-2.57 0.54,-0.44 1.18,-0.77 1.81,-1.17 0.21,0.31 0.4,0.52 0.51,0.76 1.23,2.67 2.46,5.33 3.67,8.01 0.24,0.53 0.35,1.11 0.6,1.63 0.25,0.52 -0.01,0.7 -0.44,0.84 -0.83,-1.21 -1.65,-2.41 -2.47,-3.61 -0.35,-0.51 -0.7,-1.02 -1.09,-1.5 -0.45,-0.55 -1.27,-0.62 -1.84,-0.21 -0.49,0.36 -0.52,0.92 -0.16,1.55 0.16,0.27 0.22,0.6 0.29,0.91 0.21,0.82 0.41,1.64 0.63,2.59 z"
   id="path22" />
		<path
   class="st4"
   d="m 301.46,393.5 c -0.07,0.38 -0.1,0.72 -0.21,1.04 -0.06,0.17 -0.23,0.32 -0.39,0.42 -0.5,0.31 -0.51,0.48 -0.06,0.8 0.12,0.09 0.23,0.3 0.21,0.44 -0.12,0.91 -0.27,1.82 -0.41,2.72 -0.04,0.28 -0.15,0.44 -0.5,0.47 -0.19,0.02 -0.36,0.25 -0.54,0.39 0.13,0.14 0.26,0.27 0.37,0.42 0.1,0.13 0.26,0.29 0.26,0.43 -0.05,0.69 -0.12,1.39 -0.23,2.08 -0.02,0.15 -0.24,0.38 -0.37,0.38 -0.16,0 -0.41,-0.16 -0.48,-0.31 -0.96,-2.02 -1.89,-4.05 -2.86,-6.07 -0.31,-0.64 -0.7,-1.26 -1.1,-1.85 -0.29,-0.43 -0.32,-0.84 -0.12,-1.35 2.13,-0.01 4.25,-0.01 6.43,-0.01 z"
   id="path24" />
		<path
   class="st4"
   d="m 277.21,398.19 c 0.23,0.26 0.48,0.5 0.67,0.77 0.17,0.25 0.27,0.55 0.43,0.82 0.39,0.67 0.79,0.8 1.44,0.35 0.56,-0.38 1.07,-0.83 1.54,-1.31 0.48,-0.49 0.53,-1.07 0.2,-1.68 -0.32,-0.6 -0.61,-1.21 -0.91,-1.82 -0.07,-0.15 -0.11,-0.31 -0.16,-0.47 0.03,-0.05 0.07,-0.09 0.1,-0.14 0.27,0.11 0.57,0.18 0.8,0.35 0.91,0.66 1.68,1.47 2.07,2.51 0.18,0.5 0.22,1.13 0.09,1.64 -0.45,1.8 -0.31,3.56 0.07,5.34 0.03,0.12 0.04,0.23 0.06,0.35 0.01,0.05 -0.01,0.09 -0.03,0.19 -0.68,-0.07 -1.36,-0.14 -2.04,-0.22 -0.08,-0.01 -0.18,-0.06 -0.22,-0.12 -0.55,-0.95 -1.49,-1.51 -2.39,-2.04 -1.43,-0.83 -2.07,-1.96 -1.9,-3.55 0.02,-0.23 -0.01,-0.48 -0.01,-0.71 0,-0.05 0.02,-0.1 0.04,-0.15 0.04,-0.03 0.1,-0.07 0.15,-0.11 z"
   id="path26" />
		<path
   class="st4"
   d="m 280.46,372.29 c 1.66,-0.34 3.14,-0.16 4.41,0.63 0.81,0.51 1.28,1.45 1.43,2.42 0.04,0.28 -0.11,0.64 -0.29,0.89 -0.68,0.97 -1.38,1.93 -2.13,2.86 -0.33,0.41 -0.76,0.76 -1.2,1.07 -0.79,0.55 -1,1.45 -1.48,2.19 -0.09,0.14 0.04,0.43 0.08,0.71 -0.65,0.9 -1.45,1.03 -2.49,0.3 0.16,-0.2 0.32,-0.38 0.48,-0.58 0.51,-0.66 1.02,-1.33 1.53,-1.99 0.44,-0.57 0.88,-1.14 1.32,-1.72 0.21,-0.27 0.39,-0.57 0.6,-0.84 0.46,-0.62 0.73,-1.26 0.42,-2.04 -0.13,-0.33 -0.13,-0.62 0.31,-0.83 0.41,-0.19 0.36,-0.51 -0.07,-0.84 -0.93,-0.71 -1.87,-1.43 -2.92,-2.23 z"
   id="path28" />
		<path
   class="st4"
   d="m 321.16,391.07 c 0.72,0.04 1.33,-0.03 1.86,0.13 1.57,0.46 2.86,1.34 3.73,2.73 0.2,0.32 0.22,0.66 -0.05,0.95 -0.38,0.41 -0.75,0.86 -1.22,1.15 -0.63,0.39 -1.34,0.67 -2.04,0.95 -0.22,0.09 -0.62,0.11 -0.74,-0.01 -0.15,-0.15 -0.22,-0.53 -0.13,-0.75 0.76,-1.88 0.24,-3.45 -1.19,-4.81 -0.05,-0.05 -0.07,-0.12 -0.22,-0.34 z"
   id="path30" />
		<path
   class="st4"
   d="m 272.82,403.87 c -0.42,0 -0.76,0.03 -1.09,-0.01 -0.17,-0.02 -0.35,-0.13 -0.47,-0.26 -1.69,-1.77 -3.38,-3.55 -5.06,-5.33 -1.93,-2.05 -3.85,-4.11 -5.77,-6.17 -0.07,-0.07 -0.11,-0.17 -0.16,-0.25 0.38,-0.35 0.67,-0.26 0.99,0.07 1.96,2.02 3.94,4.03 5.9,6.06 1.79,1.85 3.57,3.71 5.36,5.56 0.09,0.09 0.16,0.18 0.3,0.33 z"
   id="path32" />
		<path
   class="st4"
   d="m 284.94,383.68 c 1.4,-0.04 1.87,-0.17 1.46,-1.25 0.2,-0.08 0.41,-0.17 0.7,-0.29 0.5,1.56 0.98,3.08 1.47,4.6 0.1,0.29 -0.02,0.46 -0.27,0.63 -0.58,0.4 -1.23,0.35 -1.88,0.29 -0.09,-0.01 -0.22,-0.12 -0.25,-0.21 -0.41,-1.24 -0.81,-2.47 -1.23,-3.77 z"
   id="path34" />
		<path
   class="st4"
   d="m 319.35,404.16 c -0.77,0.03 -1.14,-0.45 -1.48,-0.92 -0.09,-0.13 -0.08,-0.45 0.02,-0.57 0.44,-0.54 0.91,-1.06 1.39,-1.57 0.64,-0.66 1.59,-0.58 2.11,0.16 0.48,0.68 0.49,0.69 -0.06,1.34 -0.32,0.38 -0.61,0.81 -0.99,1.13 -0.25,0.21 -0.65,0.29 -0.99,0.43 z"
   id="path36" />
		<path
   class="st4"
   d="m 281.08,384.83 c 0.34,-0.41 0.65,-0.75 0.93,-1.12 0.2,-0.25 0.39,-0.26 0.72,-0.21 1.15,0.19 1.49,0.91 1.63,1.92 0.11,0.74 0.42,1.45 0.65,2.17 -0.58,0.24 -0.84,-0.23 -1.2,-0.54 -0.9,-0.75 -1.82,-1.48 -2.73,-2.22 z"
   id="path38" />
		<path
   class="st5"
   d="m 285.41,405.26 c -0.15,-0.64 -0.29,-1.28 -0.46,-2 1.42,0.11 2.76,0.21 4.13,0.31 -0.04,0.71 -0.07,1.38 -0.11,2.1 -1.15,-0.13 -2.32,-0.27 -3.56,-0.41 z"
   id="path40" />
		<path
   class="st4"
   d="m 293.47,394.43 c -1.69,1.32 -3.33,2.6 -5.02,3.92 -0.12,-0.17 -0.3,-0.34 -0.37,-0.55 -0.05,-0.15 -0.03,-0.41 0.07,-0.51 1.26,-1.19 2.61,-2.26 4.2,-3.03 0.47,-0.24 0.88,-0.26 1.12,0.17 z"
   id="path42" />
		<path
   class="st4"
   d="m 285.08,378.98 c 0.63,-0.81 1.28,-1.64 1.94,-2.47 0.06,0 0.11,-0.01 0.17,-0.01 0.16,1.37 0.32,2.73 0.5,4.21 -0.93,-0.61 -1.71,-1.13 -2.61,-1.73 z"
   id="path44" />
		<path
   class="st4"
   d="m 300.07,381.94 c -1.18,-0.07 -1.69,-0.76 -1.25,-1.72 0.05,-0.12 0.24,-0.24 0.37,-0.25 0.58,-0.02 1.15,0 1.73,0 0.47,0 0.69,0.19 0.59,0.66 -0.04,0.18 -0.04,0.37 -0.1,0.55 -0.23,0.61 -0.57,0.8 -1.34,0.76 z"
   id="path46" />
		<path
   class="st4"
   d="m 328.09,394.54 c 0.38,0.81 0.79,1.59 1.11,2.41 0.26,0.69 0.19,0.74 -0.39,1.03 -0.81,-0.48 -1.55,-0.92 -2.24,-1.33 0.44,-0.62 0.95,-1.32 1.52,-2.11 z"
   id="path48" />
		<path
   class="st4"
   d="m 281.39,378.27 c -1.22,-0.88 -1.24,-2.16 -1.61,-3.48 0.77,0.55 1.46,0.99 2.07,1.52 0.19,0.16 0.23,0.61 0.15,0.88 -0.11,0.39 -0.39,0.72 -0.61,1.08 z"
   id="path50" />
		<path
   class="st4"
   d="m 291.83,393.26 c -1.16,0.75 -2.31,1.5 -3.53,2.29 -0.46,-0.82 -0.9,-1.6 -1.4,-2.49 0.5,0.03 0.89,0.04 1.16,0.06 0.25,0.44 0.43,0.83 0.68,1.17 0.09,0.12 0.34,0.16 0.52,0.17 0.58,0.01 1,-0.45 1.13,-1.27 0.5,0.02 1.01,0.05 1.44,0.07 z"
   id="path52" />
		<path
   class="st4"
   d="m 296.92,406.68 c -0.59,-0.06 -1.05,-0.08 -1.49,-0.16 -0.14,-0.03 -0.3,-0.21 -0.36,-0.35 -0.13,-0.31 -0.22,-0.64 -0.31,-0.97 -0.23,-0.85 -0.44,-1.7 -0.61,-2.58 0.89,1.3 1.79,2.61 2.77,4.06 z"
   id="path54" />
		<path
   class="st4"
   d="m 333.26,399.61 c -0.9,1 -0.63,0.93 -1.77,0.4 -0.36,-0.16 -0.69,-0.39 -1.1,-0.63 0.29,-0.4 0.54,-0.75 0.82,-1.14 0.71,0.47 1.36,0.91 2.05,1.37 z"
   id="path56" />
		<path
   class="st3"
   d="m 311.42,390.87 c -0.01,0.12 0,0.24 -0.03,0.35 -0.09,0.36 -0.23,0.72 -0.66,0.75 -0.42,0.04 -0.57,-0.33 -0.62,-0.64 -0.07,-0.49 -0.11,-0.99 -0.07,-1.48 0.02,-0.17 0.33,-0.4 0.53,-0.43 0.17,-0.02 0.48,0.16 0.56,0.33 0.17,0.34 0.23,0.73 0.34,1.1 -0.01,0.01 -0.03,0.02 -0.05,0.02 z"
   id="path58" />
		<path
   class="st4"
   d="m 327.12,398.33 c -0.98,0.42 -1.95,0.89 -2.95,1.23 -0.23,0.08 -0.62,-0.26 -0.92,-0.5 1.26,-0.44 2.45,-1.06 3.8,-0.99 0.02,0.09 0.04,0.18 0.07,0.26 z"
   id="path60" />
		<path
   class="st4"
   d="m 319.09,391.93 c 1.29,-0.05 2.14,0.44 2.48,1.43 -0.86,-0.64 -1.61,-0.24 -2.46,0.05 0.22,-0.54 0.66,-0.99 -0.02,-1.48 z"
   id="path62" />
		<path
   class="st4"
   d="m 334.67,400.19 c 0.21,0.49 -0.48,1.34 -1.49,1.89 -0.35,-0.67 0.28,-1.48 1.49,-1.89 z"
   id="path64" />
		<path
   class="st6"
   d="m 286.04,381.44 c -0.68,-0.33 -1.28,-0.63 -1.92,-0.95 0.95,-0.55 1.72,-0.18 1.92,0.95 z"
   id="path66" />
		<path
   class="st4"
   d="m 330.28,400.57 c 0.53,0.25 1.06,0.49 1.57,0.77 0.1,0.05 0.09,0.28 0.13,0.43 -0.06,0.04 -0.12,0.08 -0.18,0.11 -0.55,-0.38 -1.09,-0.76 -1.64,-1.14 0.05,-0.06 0.08,-0.11 0.12,-0.17 z"
   id="path68" />
		<path
   class="st4"
   d="m 322.88,400.22 c -0.6,0.42 -0.86,0.4 -1.19,-0.08 -0.08,-0.11 -0.01,-0.32 0,-0.49 0.14,0.01 0.3,-0.03 0.4,0.03 0.26,0.15 0.5,0.34 0.79,0.54 z"
   id="path70" />
		<path
   class="st6"
   d="m 301.32,374.13 c 0.57,0.09 1.14,0.17 1.71,0.26 -0.01,0.06 -0.02,0.11 -0.03,0.17 -0.57,-0.07 -1.14,-0.14 -1.71,-0.22 0.02,-0.06 0.02,-0.13 0.03,-0.21 z"
   id="path72" />
		<path
   class="st2"
   d="m 300.98,430.86 c -0.23,0.44 -0.35,0.86 -0.61,1.16 -0.36,0.42 -0.94,0.31 -1.22,-0.15 -0.38,-0.62 -0.36,-1.2 0.06,-1.65 0.32,-0.33 0.75,-0.6 1.16,-0.37 0.28,0.17 0.39,0.63 0.61,1.01 z"
   id="path74" />
		<path
   class="st2"
   d="m 297.56,412.15 c 0.01,-0.75 0.29,-1.05 0.97,-1.04 0.62,0.01 1.04,0.5 1.01,1.19 -0.02,0.59 -0.42,1.08 -0.89,1.09 -0.66,0 -1.09,-0.49 -1.09,-1.24 z"
   id="path76" />
		<path
   class="st2"
   d="m 297.95,421.64 c 0.02,-0.81 0.45,-1.26 1.21,-1.23 0.54,0.02 0.85,0.42 0.83,1.08 -0.02,0.61 -0.6,1.17 -1.17,1.15 -0.58,-0.03 -0.88,-0.38 -0.87,-1 z"
   id="path78" />
		<path
   class="st2"
   d="m 319.74,425.72 c -0.59,0 -0.96,-0.26 -0.97,-0.71 -0.02,-0.89 0.35,-1.44 0.97,-1.45 0.59,-0.01 1.05,0.42 1.04,0.98 0,0.67 -0.46,1.18 -1.04,1.18 z"
   id="path80" />
		<path
   class="st2"
   d="m 319.78,417.56 c -0.01,0.65 -0.42,1.15 -0.94,1.13 -0.56,-0.02 -0.97,-0.51 -0.96,-1.13 0.01,-0.55 0.33,-1.01 0.69,-1 0.81,0.02 1.21,0.36 1.21,1 z"
   id="path82" />
		<path
   class="st2"
   d="m 319.97,408.75 c -0.1,0.8 -0.47,1.25 -1.03,1.23 -0.05,0 -0.12,0.01 -0.15,-0.02 -0.19,-0.16 -0.53,-0.36 -0.51,-0.49 0.08,-0.48 0.25,-0.96 0.48,-1.4 0.07,-0.12 0.55,-0.18 0.7,-0.08 0.23,0.17 0.35,0.5 0.51,0.76 z"
   id="path84" />
	</g>
	<g
   id="g92">
		<path
   class="st7"
   d="m 306.16,404.86 c 0.02,-0.12 0.04,-0.24 0.09,-0.35 0.2,-0.46 0.46,-0.87 0.8,-1.22 0.05,-0.05 0.11,-0.09 0.16,-0.14 0.03,-0.02 0.05,-0.04 0.08,-0.07 0.03,-0.02 0.05,-0.04 0.08,-0.06 0.03,-0.03 0.07,-0.05 0.1,-0.08 0.02,-0.02 0.05,-0.04 0.07,-0.05 0.03,-0.02 0.07,-0.05 0.1,-0.07 0.03,-0.02 0.07,-0.04 0.11,-0.06 0.06,-0.04 0.13,-0.07 0.19,-0.11 0.27,-0.14 0.54,-0.24 0.83,-0.32 0.51,-0.13 1.03,-0.15 1.56,-0.07 0.01,0 0.02,0 0.03,0.01 0.03,0.01 0.04,0.02 0.03,0.05 -0.13,1.25 -0.26,2.49 -0.4,3.74 -0.01,0.05 -0.01,0.1 -0.02,0.16 0,0.01 0,0.01 0,0.02 1.07,-0.68 2.14,-1.37 3.21,-2.05 0.01,0.01 0.01,0.02 0.02,0.02 0.21,0.34 0.38,0.71 0.5,1.1 0.06,0.2 0.1,0.4 0.13,0.61 0,0.02 0,0.03 -0.02,0.04 -0.06,0.02 -0.09,0 -0.1,-0.06 -0.01,-0.06 -0.02,-0.13 -0.04,-0.19 -0.09,-0.41 -0.22,-0.8 -0.43,-1.17 -0.03,-0.05 -0.06,-0.1 -0.1,-0.15 -1.12,0.71 -2.23,1.43 -3.34,2.14 0,-0.01 0,-0.02 0,-0.03 0.14,-1.35 0.29,-2.7 0.43,-4.05 0,-0.02 0,-0.03 -0.02,-0.04 -0.15,-0.03 -0.31,-0.04 -0.46,-0.05 -0.22,0 -0.44,0.02 -0.66,0.06 -0.44,0.08 -0.85,0.23 -1.25,0.44 -0.19,0.11 -0.37,0.24 -0.54,0.38 -0.17,0.14 -0.32,0.3 -0.47,0.48 -0.27,0.33 -0.49,0.7 -0.66,1.1 0,0.02 -0.01,0.03 -0.01,0.04 z"
   id="path88" />
		<path
   class="st8"
   d="m 313.86,403.57 c -0.02,-0.02 -0.03,-0.04 -0.05,-0.06 -0.21,-0.27 -0.43,-0.53 -0.69,-0.77 -0.6,-0.55 -1.29,-0.93 -2.08,-1.12 0,0 -0.01,0 -0.01,0 -0.04,-0.01 -0.05,-0.02 -0.05,-0.05 0,-0.03 0.03,-0.07 0.06,-0.07 0.05,0 0.09,0 0.14,0 0.18,0.01 0.36,0.05 0.53,0.09 0.18,0.04 0.34,0.11 0.51,0.17 0.15,0.06 0.3,0.14 0.45,0.22 0.14,0.08 0.27,0.16 0.38,0.26 0.33,0.3 0.6,0.65 0.78,1.06 0.02,0.05 0.05,0.11 0.07,0.16 0.01,0.03 0.01,0.06 -0.02,0.09 -0.01,0.02 -0.02,0.02 -0.02,0.02 z"
   id="path90" />
	</g>
	<g
   id="g110">
		<rect
   x="272.88"
   y="444.85001"
   class="st9"
   width="94.43"
   height="35.049999"
   id="rect94" />
		<path
   class="st10"
   d="m 280.08,448.34 v 7.04 h -1.47 l -0.2,-0.99 c -0.5,0.78 -1.29,1.18 -2.35,1.18 -0.81,0 -1.42,-0.25 -1.83,-0.74 -0.41,-0.49 -0.62,-1.27 -0.62,-2.33 v -4.16 h 1.86 v 4.16 c 0,0.45 0.1,0.78 0.3,1 0.2,0.22 0.48,0.33 0.83,0.33 0.45,0 0.83,-0.17 1.13,-0.5 0.3,-0.33 0.46,-0.81 0.46,-1.43 v -3.56 z"
   id="path96" />
		<path
   class="st10"
   d="m 286.9,454.92 c -0.24,0.19 -0.55,0.34 -0.92,0.46 -0.37,0.12 -0.75,0.18 -1.14,0.18 -0.79,0 -1.39,-0.24 -1.78,-0.73 -0.39,-0.49 -0.59,-1.15 -0.59,-1.99 v -2.93 h -1.37 v -1.29 l 1.37,-0.24 v -2.04 h 1.86 v 1.99 h 2.18 v 1.58 h -2.18 v 2.6 c 0,0.43 0.08,0.76 0.23,1 0.15,0.24 0.39,0.36 0.71,0.36 0.33,0 0.66,-0.1 1.01,-0.29 z"
   id="path98" />
		<path
   class="st10"
   d="m 289.7,447.32 h -1.86 v -1.78 h 1.86 z m 0,8.07 h -1.86 v -7.04 h 1.86 z"
   id="path100" />
		<path
   class="st10"
   d="m 293.31,455.39 h -1.86 v -10.54 h 1.86 z"
   id="path102" />
		<path
   class="st10"
   d="m 296.92,447.32 h -1.86 v -1.78 h 1.86 z m 0,8.07 h -1.86 v -7.04 h 1.86 z"
   id="path104" />
		<path
   class="st10"
   d="m 303.67,454.92 c -0.24,0.19 -0.55,0.34 -0.92,0.46 -0.37,0.12 -0.75,0.18 -1.14,0.18 -0.79,0 -1.39,-0.24 -1.78,-0.73 -0.39,-0.49 -0.59,-1.15 -0.59,-1.99 v -2.93 h -1.37 v -1.29 l 1.37,-0.24 v -2.04 h 1.86 v 1.99 h 2.18 v 1.58 h -2.18 v 2.6 c 0,0.43 0.08,0.76 0.23,1 0.15,0.24 0.39,0.36 0.71,0.36 0.33,0 0.66,-0.1 1.01,-0.29 z"
   id="path106" />
		<path
   class="st10"
   d="m 308.69,451.79 h -1.82 v 3.6 h -1.96 v -9.84 h 4.3 c 1.1,0 1.96,0.27 2.58,0.82 0.62,0.55 0.92,1.31 0.92,2.29 0,0.72 -0.17,1.32 -0.53,1.81 -0.35,0.49 -0.84,0.85 -1.48,1.07 l 2.24,3.85 H 310.8 Z M 306.88,450 h 2.23 c 0.54,0 0.95,-0.11 1.21,-0.33 0.27,-0.22 0.4,-0.56 0.4,-1.01 0,-0.46 -0.12,-0.79 -0.36,-1 -0.24,-0.21 -0.62,-0.32 -1.13,-0.32 h -2.34 V 450 Z"
   id="path108" />
	</g>
</g>
<g
   id="g114">
</g>
<g
   id="g116">
</g>
<g
   id="g118">
</g>
<g
   id="g120">
</g>
<g
   id="g122">
</g>
<g
   id="g124">
</g>
</svg>
